<svg xmlns="http://www.w3.org/2000/svg" viewBox="0 0 171.19 186.34"><defs><style>.cls-1{fill:#1d1d1b;}</style></defs><g id="Capa_2" data-name="Capa 2"><g id="Capa_1-2" data-name="Capa 1"><path class="cls-1" d="M95.17,99c-17.1,13-31.34,17-69.33,11.4a49.22,49.22,0,0,0-9.1-.5A55.58,55.58,0,0,0,71.39,154c30.14,0,54.7-23.6,55.71-53.1C115.33,95.16,104.5,91.94,95.17,99Z"/><path class="cls-1" d="M171.17,97.92a25.25,25.25,0,0,0-2.25-10.38,21.28,21.28,0,0,0-5.75-7.41c-4.73-3.92-11.26-6.14-19.41-6.61a57.26,57.26,0,0,0-7.89.11c-1.13-3.53-2-5.55-2-5.55H123.13A58.78,58.78,0,0,1,131.87,99c0,33-27.08,59.68-60.49,59.68S10.89,132,10.89,99a58.76,58.76,0,0,1,8.74-30.92H8.23s-28.37,68.76,20.26,107.14c0,.16,0,.32,0,.48v3.61a7.1,7.1,0,0,0,7.12,7H106a7.09,7.09,0,0,0,7.12-7v-3.67a72.26,72.26,0,0,0,19.52-22.75A51.68,51.68,0,0,0,152.37,146,36.1,36.1,0,0,0,165,132.47C170.76,121.89,171.35,109.07,171.17,97.92Zm-16.76,29c-3.29,6.08-8.51,10.18-16.15,12.58,6.14-19.8,3.86-40.22.77-54.13,1.24,0,2.71,0,4.28,0,3.71.24,8.83,1.1,12.13,3.85,2.42,2,3.62,4.91,3.69,8.87C159.29,107.74,158.85,118.68,154.41,126.89Z"/><path class="cls-1" d="M78.63,103.46s.38-.3,1-.91l.55-.51.64-.63c.45-.46,1-1,1.51-1.61s1.13-1.31,1.74-2.08,1.22-1.63,1.85-2.56,1.24-2,1.83-3c.15-.27.29-.56.43-.83l.22-.42.21-.44.42-.89.39-.92c.06-.16.14-.31.19-.47l.18-.48.18-.48.18-.49.33-1c.06-.17.11-.34.16-.51l.15-.51.15-.52c0-.17.09-.35.13-.53.09-.35.17-.71.26-1.06s.14-.72.22-1.09c0-.18.08-.36.11-.55s.06-.37.08-.56c0-.37.12-.75.17-1.13s.08-.76.13-1.15.07-.77.09-1.16c0-.19,0-.39,0-.59s0-.39,0-.59c0-.4,0-.79,0-1.19s0-.8,0-1.2c0-.2,0-.4,0-.61V72.3h0v-.12c0-.43,0-.91-.08-1.26l0-.29,0-.29c0-.2,0-.4-.07-.6s-.06-.4-.08-.59l0-.3c0-.1,0-.2,0-.3a23,23,0,0,0-.5-2.33,20.11,20.11,0,0,0-1.71-4.38,21.78,21.78,0,0,0-1.24-2c-.11-.17-.23-.33-.35-.5s-.24-.33-.37-.49l-.38-.49-.4-.49c-1.08-1.29-2.31-2.55-3.65-3.86s-2.76-2.68-4.14-4.24a31.62,31.62,0,0,1-2-2.49,21.11,21.11,0,0,1-3.88-9.08A24.84,24.84,0,0,1,72.92,35c0-.26,0-.52,0-.77s0-.51,0-.77v-.4l0-.33c0-.2,0-.49,0-.76l0-.4c0-.13,0-.25,0-.38s.05-.5.1-.75l.12-.74c0-.25.1-.49.14-.74.11-.49.22-1,.35-1.45.06-.24.14-.48.21-.71l.11-.35.12-.35A23.14,23.14,0,0,1,76.73,21,29,29,0,0,1,80,16.91a45.67,45.67,0,0,1,3.42-3.22c2.25-1.92,4.35-3.47,6.09-4.93.87-.73,1.65-1.43,2.33-2.11a17.21,17.21,0,0,0,1.71-2c.12-.16.22-.32.33-.48s.2-.31.29-.47.18-.3.25-.45.16-.29.22-.43a10.63,10.63,0,0,0,.58-1.49q0-.17.09-.3l.06-.27L95.4.54c0-.07,0-.13,0-.19,0-.23.07-.35.07-.35s0,.12,0,.35c0,.06,0,.12,0,.2s0,.15,0,.24,0,.18,0,.28,0,.21,0,.32,0,.49,0,.77,0,.29,0,.45,0,.31-.07.48a10.68,10.68,0,0,1-.63,2.26,21.65,21.65,0,0,1-3.26,5.4c-1.48,1.9-3.29,3.85-5.08,6-.9,1.07-1.78,2.18-2.61,3.35a27.67,27.67,0,0,0-2.22,3.7c-.31.65-.6,1.31-.85,2a21,21,0,0,0-.62,2.09l-.06.27-.05.27A5.12,5.12,0,0,0,80,29c-.07.36-.12.73-.17,1.1l-.06.56c0,.19,0,.38,0,.56s0,.38,0,.57,0,.19,0,.28v.26c0,.18,0,.33,0,.58v.6c0,.19,0,.39,0,.58s0,.38,0,.58a18.36,18.36,0,0,0,.37,2.24A14.91,14.91,0,0,0,80.85,39a14.28,14.28,0,0,0,1,2,18.66,18.66,0,0,0,1.3,1.93c.49.63,1,1.26,1.6,1.89,1.16,1.26,2.49,2.53,3.88,3.89a53.17,53.17,0,0,1,4.14,4.49l.49.63.48.64.46.66.45.67a27,27,0,0,1,1.59,2.83,26.42,26.42,0,0,1,1.22,3,26.07,26.07,0,0,1,.81,3.06,26.87,26.87,0,0,1,.45,3q0,.38.06.75c0,.25,0,.5,0,.74l0,.74c0,.12,0,.25,0,.38v.38c0,.53,0,1,0,1.39v.39l0,.35c0,.24,0,.47,0,.7,0,.94-.18,1.86-.28,2.78,0,.23-.07.46-.1.68s-.08.45-.11.68c-.08.45-.15.9-.26,1.33l-.3,1.31a3,3,0,0,1-.08.32l-.09.32-.18.64-.18.63c-.06.21-.14.41-.2.62-.14.41-.28.82-.41,1.22s-.31.79-.46,1.18c-.08.19-.15.39-.24.58l-.26.57a33.12,33.12,0,0,1-2.23,4.19l-.61,1-.63.9c-.11.15-.2.3-.31.44l-.32.42-.32.42-.32.4-.65.78-.33.37-.33.36c-.43.48-.88.92-1.3,1.36s-.86.83-1.29,1.2l-.63.55-.62.5c-.2.17-.41.32-.6.47l-.58.44c-.39.28-.76.54-1.12.78s-.7.46-1,.66l-.48.28-.45.26c-.58.33-1.09.58-1.5.78s-.74.33-1,.42Z"/><path class="cls-1" d="M69.78,105.89l.19-.15.53-.44c.23-.2.51-.44.83-.74.16-.15.33-.3.51-.48l.57-.55c.79-.78,1.73-1.76,2.71-2.93a40.11,40.11,0,0,0,3-4.1c.25-.39.51-.78.75-1.2l.37-.62.36-.65.36-.66.35-.68c.24-.45.45-.93.67-1.4a37.77,37.77,0,0,0,2.17-6.18,39.35,39.35,0,0,0,1.1-6.88c0-.3,0-.59,0-.89l0-.45v-.44c0-.59,0-1.18,0-1.78,0-.32,0-.63,0-1s0-.58,0-.86L84.27,72l-.09-.88a26.09,26.09,0,0,0-.64-3.44c-.14-.56-.32-1.11-.49-1.65s-.39-1.08-.62-1.6a22.09,22.09,0,0,0-1.58-3,29.6,29.6,0,0,0-2-2.77c-1.42-1.78-3-3.42-4.5-5.08-.75-.83-1.48-1.65-2.16-2.48a28.21,28.21,0,0,1-1.86-2.53A21.07,21.07,0,0,1,68.93,46,17.47,17.47,0,0,1,68,43.54a18.28,18.28,0,0,1-.51-2.22,17.93,17.93,0,0,1-.19-1.9c0-.14,0-.28,0-.42v-.39c0-.25,0-.49,0-.71,0-.44,0-.82.07-1.12s.06-.53.08-.69l0-.23s.05.32.15.91.27,1.45.57,2.51l.12.41c0,.14.09.28.14.42s0,.14.07.22,0,.15.08.22l.16.45a20.69,20.69,0,0,0,.86,1.91A20.24,20.24,0,0,0,72.45,47c.3.34.62.68,1,1s.68.69,1,1c.73.69,1.5,1.4,2.33,2.12A65.48,65.48,0,0,1,82,56.05a29,29,0,0,1,2.46,3.05c.38.55.75,1.12,1.09,1.71s.66,1.2,1,1.82.56,1.26.8,1.91a19.79,19.79,0,0,1,.63,2,27.2,27.2,0,0,1,.79,4.06l.1,1,.07,1c0,.35,0,.7,0,1s0,.64,0,1v.53l0,.5c0,.33,0,.67,0,1a2.09,2.09,0,0,1,0,.25l0,.25,0,.5-.09,1A36.28,36.28,0,0,1,87,86.25a34.15,34.15,0,0,1-3,6.61c-.3.49-.59,1-.9,1.45l-.46.69c-.15.23-.32.44-.48.66s-.32.44-.48.64l-.49.62c-.32.41-.66.8-1,1.17-.08.09-.16.19-.25.28l-.25.27-.49.53c-.33.35-.66.67-1,1l-1,.89c-.33.28-.64.56-1,.81A30.83,30.83,0,0,1,73,104.27c-.49.3-.93.56-1.33.77s-.73.38-1,.51l-.64.28Z"/></g></g></svg>