<svg xmlns="http://www.w3.org/2000/svg" viewBox="0 0 152.4 201.3"><defs><style>.cls-1{fill:#1d1d1b;}</style></defs><g id="Capa_2" data-name="Capa 2"><g id="Capa_1-2" data-name="Capa 1"><path class="cls-1" d="M145.29,108a15.7,15.7,0,0,1-4,1.86c-1.59.43-2,3-.69,4.17a13.24,13.24,0,0,1,4,7.53c1,5.29-1.06,9.52-5,13A20,20,0,0,1,134.2,138a3,3,0,0,0-.79,5.08c3.87,3.31,5,8,3,12.93a18.06,18.06,0,0,1-8.16,9.38,9.34,9.34,0,0,1-1.63.68,2.47,2.47,0,0,0-2,2.51,3,3,0,0,0,1.08,2.68,10.88,10.88,0,0,1,4,6.89,11,11,0,0,1-1.09,6.2,22.4,22.4,0,0,1-6,7.49,34,34,0,0,1-6.52,3.52,50.2,50.2,0,0,1-6.38,1.62C52.34,208.57,12.1,193.49,7,191.64c-1.08-.39-4.64-2.7-5.61-2.71-.17,0-1.37-.29-1.37-.45V102.7l6.41-4.51a3.85,3.85,0,0,0,.57-.5,2,2,0,0,0,.19-.22C18.55,83.16,25.86,68,34.34,51.78c5.67-10.81,7.09-33.9,7-42.6A9.2,9.2,0,0,1,50.81,0c1.72,0,5.31.13,7.48.93,2.57.94,4.76,4.3,7,8.6,3,5.86,4.88,12.21,6.66,18.58a58.39,58.39,0,0,1,1.59,7.26,25.1,25.1,0,0,1,.14,5.41c-.14,2.07-.26,4.13-.46,6.19-.4,4.06-1,8.09-1.66,12.1-.74,4.35-1.57,8.69-2.46,13l0,.15a5,5,0,0,1-.16,1.07c-1.41,5.55,4.25,8.81,7.59,10.22a27.53,27.53,0,0,0,5.55.82c18.32,0,49-.1,52.74-.09,2.48,0,5,0,7.43.07A10.58,10.58,0,0,1,152,92.58,14.49,14.49,0,0,1,145.29,108Z"/></g></g></svg>