<?xml version="1.0" encoding="utf-8"?>
<!-- Generator: Adobe Illustrator 24.0.2, SVG Export Plug-In . SVG Version: 6.00 Build 0)  -->
<svg version="1.1" id="Layer_1" xmlns="http://www.w3.org/2000/svg" xmlns:xlink="http://www.w3.org/1999/xlink" x="0px" y="0px"
	 viewBox="0 0 1200 1200" style="enable-background:new 0 0 1200 1200;" xml:space="preserve">
<style type="text/css">
	.st0{fill:#ADE0F3;}
</style>
<g>
	<g>
		<path class="st0" d="M469.24,402.24l-38.97,82.82c-8.57,18.21-8.95,39.65,0.64,57.35c6.78,12.51,18.4,23.24,38.33,23.24
			c19.93,0,31.55-10.72,38.33-23.24c9.59-17.69,9.21-39.14,0.64-57.35L469.24,402.24z"/>
		<path class="st0" d="M591.99,546.11l-20.9,44.41c-4.59,9.76-4.8,21.26,0.34,30.75c3.64,6.71,9.87,12.46,20.55,12.46
			s16.92-5.75,20.55-12.46c5.14-9.49,4.94-20.99,0.34-30.75L591.99,546.11z"/>
		<path class="st0" d="M699.93,402.24l-33.24,70.64c-7.31,15.53-7.63,33.83,0.55,48.92c5.78,10.67,15.7,19.82,32.7,19.82
			c17,0,26.91-9.15,32.7-19.82c8.18-15.09,7.86-33.39,0.55-48.92L699.93,402.24z"/>
		<path class="st0" d="M514.7,662.45l-19.23,40.86c-4.23,8.98-4.41,19.57,0.32,28.29c3.35,6.17,9.08,11.46,18.91,11.46
			c9.83,0,15.57-5.29,18.91-11.46c4.73-8.73,4.54-19.31,0.32-28.29L514.7,662.45z"/>
		<path class="st0" d="M699.93,629.8l-34.8,73.95c-7.65,16.26-7.99,35.41,0.57,51.21c6.05,11.17,16.43,20.75,34.23,20.75
			c17.79,0,28.17-9.58,34.23-20.75c8.56-15.8,8.22-34.95,0.57-51.21L699.93,629.8z"/>
	</g>
</g>
</svg>
