<?xml version="1.0" encoding="utf-8"?>
<!-- Generator: Adobe Illustrator 24.1.0, SVG Export Plug-In . SVG Version: 6.00 Build 0)  -->
<svg version="1.1" id="Capa_1" xmlns="http://www.w3.org/2000/svg" xmlns:xlink="http://www.w3.org/1999/xlink" x="0px" y="0px"
	 viewBox="0 0 613.2 490.2" style="enable-background:new 0 0 613.2 490.2;" xml:space="preserve">
<style type="text/css">
	.st0{fill:#375A64;}
	.st1{fill:#FFFFFF;}
	.st2{fill:#FF4F5B;}
	.st3{fill:#E9E9E4;}
	.st4{font-family:'ArialMT';}
	.st5{font-size:21.7425px;}
	.st6{fill:#F5DC3A;}
	.st7{fill:#272425;}
</style>
<g>
	<g>
		<g>
			<g>
				<path class="st0" d="M357.7,426.7l-127.7-0.6c-15.4-0.1-27.8-12.6-27.7-27.9l1.4-320.3c0.1-15.4,12.6-27.8,28-27.7l127.7,0.6
					c15.4,0.1,27.8,12.6,27.7,27.9L385.6,399C385.6,414.4,373,426.8,357.7,426.7z"/>
			</g>
			<g>
				<path class="st1" d="M359.1,61.8l-24.8-0.1c-3.3,0-6,2.8-6,6.3l0,4.5c0,3.5-2.7,6.3-6,6.3l-48.3-0.2c-3.3,0-6-2.8-6-6.3l0-4.5
					c0-3.5-2.7-6.3-6-6.3l-8.7,0l-21.7-0.1c-10.8-0.1-19.5,8.6-19.6,19.4l-1.3,312.6c-0.1,10.8,8.6,19.5,19.4,19.6l127.5,0.6
					c10.8,0.1,19.5-8.6,19.6-19.4l1.3-312.6C378.5,70.7,369.9,61.9,359.1,61.8z"/>
			</g>
			<g>
				<g>
					<g>
						<g>
							<path class="st2" d="M358.5,353.7l-129.8-0.6c-1.3,0-2.4-1.6-2.4-3.6l0.2-37.6c0-2,1.1-3.6,2.4-3.6l129.8,0.6
								c1.3,0,2.4,1.6,2.4,3.6l-0.2,37.5C360.9,352.1,359.8,353.7,358.5,353.7z"/>
						</g>
						<g>
							<text transform="matrix(0.8654 4.016640e-03 -4.247983e-03 1 263.836 337.1228)" class="st3 st4 st5">Solicitar</text>
						</g>
					</g>
				</g>
			</g>
		</g>
	</g>
	
		<image style="overflow:visible;enable-background:new    ;" width="207" height="155" xlink:href="A137FEF5.png"  transform="matrix(0.6262 0 0 0.6262 230.377 138.626)">
	</image>
	<g id="XMLID_377_">
		<path class="st6" d="M354.7,411.5L340.9,337c-0.4-2.1,1.9-3.6,3.7-2.5l65.5,39.4l-24.9,6.3l15.8,22.8c1.3,1.8,0.8,4.4-1,5.6
			l-9,6.1c-1.8,1.2-4.3,0.8-5.5-1l-15.8-22.3L354.7,411.5z"/>
		<path class="st7" d="M388.6,416.4c-1.6,0-3.1-0.7-4.1-2.1l-15-21.2l-14.1,18.9c-0.2,0.3-0.6,0.5-1,0.4c-0.4-0.1-0.7-0.4-0.8-0.8
			l-13.8-74.5c-0.3-1.3,0.3-2.7,1.4-3.4c1.1-0.8,2.6-0.8,3.7-0.1l65.5,39.4c0.3,0.2,0.5,0.6,0.5,1c-0.1,0.4-0.3,0.7-0.7,0.8l-23.5,6
			l15,21.7c0.8,1.1,1.1,2.4,0.8,3.8c-0.2,1.3-1,2.5-2.1,3.2l-9,6.1C390.6,416.2,389.6,416.4,388.6,416.4z M369.5,390.4L369.5,390.4
			c0.3,0,0.6,0.2,0.8,0.4l15.8,22.3c0.9,1.3,2.8,1.7,4.1,0.8l9-6.1c0.7-0.5,1.1-1.1,1.3-1.9c0.2-0.8,0-1.6-0.5-2.3l-15.8-22.8
			c-0.2-0.3-0.2-0.6-0.1-0.9c0.1-0.3,0.4-0.5,0.7-0.6l22.6-5.7L344,335.3c-0.5-0.3-1.1-0.3-1.6,0.1c-0.5,0.3-0.7,0.9-0.6,1.4
			l13.4,72.2l13.5-18.2C368.9,390.6,369.2,390.4,369.5,390.4z"/>
	</g>
</g>
</svg>
