<?xml version="1.0" encoding="utf-8"?>
<!-- Generator: Adobe Illustrator 24.0.2, SVG Export Plug-In . SVG Version: 6.00 Build 0)  -->
<svg version="1.1" id="Capa_1" xmlns="http://www.w3.org/2000/svg" xmlns:xlink="http://www.w3.org/1999/xlink" x="0px" y="0px"
	 viewBox="0 0 561.5 430.6" style="enable-background:new 0 0 561.5 430.6;" xml:space="preserve">
<style type="text/css">
	.st0{fill:#375A64;}
	.st1{fill:#FFFFFF;}
	.st2{fill:#FF4F5B;}
	.st3{fill:#E9E9E4;}
	.st4{font-family:'MontserratSubrayada-Bold';}
	.st5{font-size:11.5089px;}
	.st6{opacity:0.1;enable-background:new    ;}
	.st7{fill:#E1E1E1;}
	.st8{opacity:0.2;fill:#FFFFFF;enable-background:new    ;}
	.st9{opacity:0.2;}
</style>
<g>
	<g>
		<g>
			<path class="st0" d="M318,309.3l-67.6-0.3c-8.1,0-14.7-6.7-14.7-14.8l0.7-169.5c0-8.1,6.7-14.7,14.8-14.7l67.6,0.3
				c8.1,0,14.7,6.7,14.7,14.8l-0.7,169.5C332.8,302.7,326.1,309.3,318,309.3z"/>
		</g>
		<g>
			<path class="st1" d="M318.8,116.1l-13.1-0.1c-1.8,0-3.2,1.5-3.2,3.3l0,2.4c0,1.8-1.4,3.3-3.2,3.3l-25.6-0.1
				c-1.8,0-3.2-1.5-3.2-3.3l0-2.4c0-1.8-1.4-3.3-3.2-3.3l-4.6,0l-11.5-0.1c-5.7,0-10.3,4.6-10.4,10.3l-0.7,165.5
				c0,5.7,4.6,10.3,10.3,10.4l67.5,0.3c5.7,0,10.3-4.6,10.4-10.3l0.7-165.5C329.1,120.8,324.5,116.2,318.8,116.1z"/>
		</g>
		<g>
			<g>
				<g>
					<g>
						<path class="st2" d="M318.3,287.7l-68.7-0.3c-0.7,0-1.3-0.9-1.3-1.9l0.1-19.9c0-1.1,0.6-1.9,1.3-1.9l68.7,0.3
							c0.7,0,1.3,0.9,1.3,1.9l-0.1,19.9C319.6,286.8,319,287.7,318.3,287.7z"/>
					</g>
					<g>
						<text transform="matrix(0.8654 4.016641e-03 -4.247983e-03 1 258.7032 280.4561)" class="st3 st4 st5">Aceptar</text>
					</g>
				</g>
			</g>
		</g>
	</g>
</g>
<g>
	<g>
		
			<rect x="257.1" y="155.4" transform="matrix(4.615650e-03 -1 1 4.615650e-03 93.4141 422.1216)" class="st2" width="3.2" height="17.4"/>
		
			<rect x="257.1" y="155.4" transform="matrix(4.615650e-03 -1 1 4.615650e-03 93.4141 422.1216)" class="st6" width="3.2" height="17.4"/>
	</g>
	<g>
		<g>
			<path class="st7" d="M318.5,182.2c0,0,0.1,0,0.4-0.1c0.2-0.1,0.6-0.4,0.7-0.9c0-1.1,0-2.6,0-4.7c0-1,0-2.1,0-3.4
				c0-0.3,0-0.6,0-0.9c0-0.3,0-0.6-0.2-0.9c-0.2-0.3-0.5-0.4-0.8-0.4c-0.3,0-0.7,0-1.1,0c-2.9,0-6.2,0-9.8,0
				c-14.5-0.1-34.5-0.1-56.6-0.2c-0.3,0-0.6,0.1-0.7,0.4c-0.2,0.2-0.2,0.5-0.2,0.9c0,0.7,0,1.4,0,2.1c0,1.4,0,2.7,0,4.1
				c0,0.7,0,1.3,0,2c0,0.3,0,0.7,0,1c0.1,0.3,0.3,0.5,0.5,0.6c0.1,0.1,0.3,0.1,0.4,0.1h0.5l1,0c0.7,0,1.3,0,2,0
				c5.2,0,10.2,0.1,15,0.1c9.6,0.1,18.2,0.1,25.5,0.2c7.2,0.1,13.1,0.1,17.2,0.1c2,0,3.6,0,4.7,0.1c0.5,0,0.9,0,1.2,0
				C318.4,182.2,318.5,182.2,318.5,182.2s-0.1,0-0.4,0c-0.3,0-0.7,0-1.2,0c-1.1,0-2.6,0-4.7,0c-4.1,0-9.9,0-17.2,0
				c-7.3,0-15.9,0-25.5-0.1c-4.8,0-9.8,0-15-0.1c-0.6,0-1.3,0-2,0l-1,0h-0.5c-0.2,0-0.4,0-0.6-0.1c-0.4-0.1-0.6-0.5-0.7-0.8
				c-0.1-0.2,0-0.4,0-0.5v-0.5c0-0.7,0-1.3,0-2c0-1.3,0-2.7,0-4.1c0-0.7,0-1.4,0-2.1c0-0.2,0-0.3,0-0.5c0-0.2,0.1-0.4,0.2-0.5
				c0.2-0.3,0.6-0.5,1-0.5c22.1,0.1,42.1,0.2,56.6,0.3c3.6,0,6.9,0,9.8,0.1c0.4,0,0.7,0,1.1,0c0.4,0,0.7,0.2,0.9,0.5
				c0.2,0.3,0.2,0.7,0.2,1c0,0.3,0,0.6,0,0.9c0,1.2,0,2.4,0,3.4c0,2,0,3.6-0.1,4.7c-0.1,0.6-0.5,0.9-0.7,0.9
				C318.7,182.2,318.5,182.2,318.5,182.2z"/>
		</g>
	</g>
	<g>
		
			<rect x="269.1" y="160.4" transform="matrix(4.619080e-03 -1 1 4.619080e-03 93.0301 446.1689)" class="st2" width="3" height="31.8"/>
		
			<rect x="269.1" y="160.4" transform="matrix(4.619080e-03 -1 1 4.619080e-03 93.0301 446.1689)" class="st8" width="3" height="31.8"/>
	</g>
	<g>
		
			<rect x="257" y="184.6" transform="matrix(4.615634e-03 -1 1 4.615634e-03 64.1349 451.0234)" class="st2" width="3.2" height="17.4"/>
		
			<rect x="257" y="184.6" transform="matrix(4.615634e-03 -1 1 4.615634e-03 64.1349 451.0234)" class="st6" width="3.2" height="17.4"/>
	</g>
	<g>
		<g>
			<path class="st7" d="M318.1,211.3c0,0,0.1,0,0.4-0.1c0.2-0.1,0.6-0.3,0.9-0.8c0.1-0.2,0.1-0.5,0.1-0.9c0-0.3,0-0.7,0-1.1
				c0-0.8,0-1.7,0-2.7c0-1,0-2.1,0-3.4c0-0.3,0-0.6,0-0.9c0-0.3,0-0.6-0.2-0.9c-0.2-0.3-0.4-0.5-0.7-0.6c-0.3-0.1-0.7,0-1-0.1
				c-2.9,0-6.1,0-9.7,0c-14.5-0.1-34.4-0.1-56.4-0.2c-0.6,0-1.2,0.5-1.2,1.1c0,0.6,0,1.4,0,2c0,1.4,0,2.7,0,4.1c0,0.7,0,1.3,0,2
				c0,0.3,0,0.7,0,0.9c0.1,0.3,0.3,0.5,0.5,0.7c0.3,0.2,0.5,0.2,0.8,0.2l1,0c0.7,0,1.3,0,2,0c5.2,0,10.2,0.1,15,0.1
				c9.5,0.1,18.1,0.1,25.4,0.2c7.2,0.1,13.1,0.1,17.1,0.1c2,0,3.6,0,4.7,0.1c0.5,0,0.9,0,1.2,0C317.9,211.3,318.1,211.3,318.1,211.3
				s-0.1,0-0.4,0c-0.3,0-0.7,0-1.2,0c-1.1,0-2.6,0-4.7,0c-4,0-9.9,0-17.1,0c-7.2,0-15.8,0-25.4-0.1c-4.8,0-9.8,0-15-0.1
				c-0.6,0-1.3,0-2,0l-1,0c-0.3,0-0.7-0.1-1-0.3c-0.3-0.2-0.5-0.5-0.6-0.9c-0.1-0.4,0-0.7-0.1-1c0-0.7,0-1.3,0-2c0-1.3,0-2.7,0-4.1
				c0-0.7,0-1.3,0-2.1c0.1-0.8,0.8-1.4,1.6-1.4c22,0.1,42,0.2,56.4,0.3c3.6,0,6.9,0,9.7,0.1c0.4,0,0.7,0,1.1,0.1
				c0.4,0.1,0.6,0.4,0.8,0.7c0.2,0.3,0.2,0.7,0.2,1c0,0.3,0,0.6,0,0.9c0,1.2,0,2.3,0,3.4c0,1,0,1.9,0,2.7c0,0.4,0,0.7,0,1.1
				c0,0.3,0,0.6-0.1,0.9c-0.2,0.5-0.7,0.7-0.9,0.8C318.2,211.4,318.1,211.3,318.1,211.3z"/>
		</g>
	</g>
	<g>
		
			<rect x="256.9" y="215" transform="matrix(4.596210e-03 -1 1 4.596210e-03 33.6082 481.1627)" class="st2" width="3.2" height="17.4"/>
		
			<rect x="256.9" y="215" transform="matrix(4.596210e-03 -1 1 4.596210e-03 33.6082 481.1627)" class="st6" width="3.2" height="17.4"/>
	</g>
	<g>
		<g>
			<path class="st7" d="M317.9,241.7c0,0,0.1,0,0.4-0.1c0.2-0.1,0.6-0.3,0.9-0.8c0.1-0.2,0.1-0.5,0.1-0.9c0-0.3,0-0.7,0-1.1
				c0-0.8,0-1.7,0-2.7c0-1,0-2.1,0-3.4c0-0.3,0-0.6,0-0.9c0-0.3,0-0.6-0.2-0.9c-0.2-0.3-0.4-0.5-0.7-0.6c-0.3-0.1-0.7,0-1-0.1
				c-2.9,0-6.1,0-9.7,0c-14.5-0.1-34.4-0.1-56.4-0.2c-0.6,0-1.2,0.5-1.2,1.1c0,0.6,0,1.4,0,2c0,1.4,0,2.7,0,4.1c0,0.7,0,1.3,0,2
				c0,0.3,0,0.7,0,0.9c0.1,0.3,0.3,0.5,0.5,0.7c0.3,0.2,0.5,0.2,0.8,0.2l1,0c0.7,0,1.3,0,2,0c5.2,0,10.2,0.1,15,0.1
				c9.5,0.1,18.1,0.1,25.4,0.2c7.2,0.1,13.1,0.1,17.1,0.1c2,0,3.6,0,4.7,0.1c0.5,0,0.9,0,1.2,0C317.8,241.7,317.9,241.7,317.9,241.7
				s-0.1,0-0.4,0c-0.3,0-0.7,0-1.2,0c-1.1,0-2.6,0-4.7,0c-4,0-9.9,0-17.1,0c-7.2,0-15.8,0-25.4-0.1c-4.8,0-9.8,0-15-0.1
				c-0.6,0-1.3,0-2,0l-1,0c-0.3,0-0.7-0.1-1-0.3c-0.3-0.2-0.5-0.5-0.6-0.9c-0.1-0.4,0-0.7-0.1-1c0-0.7,0-1.3,0-2c0-1.3,0-2.7,0-4.1
				c0-0.7,0-1.3,0-2.1c0.1-0.8,0.8-1.4,1.6-1.4c22,0.1,42,0.2,56.4,0.3c3.6,0,6.9,0,9.7,0.1c0.4,0,0.7,0,1.1,0.1
				c0.4,0.1,0.6,0.4,0.8,0.7c0.2,0.3,0.2,0.7,0.2,1c0,0.3,0,0.6,0,0.9c0,1.2,0,2.3,0,3.4c0,1,0,1.9,0,2.7c0,0.4,0,0.7,0,1.1
				c0,0.3,0,0.6-0.1,0.9c-0.2,0.5-0.7,0.7-0.9,0.8C318.1,241.8,317.9,241.7,317.9,241.7z"/>
		</g>
	</g>
	<g>
		
			<rect x="269" y="189.6" transform="matrix(4.619041e-03 -1 1 4.619041e-03 63.7508 475.0706)" class="st2" width="3" height="31.8"/>
		
			<rect x="269" y="189.6" transform="matrix(4.619041e-03 -1 1 4.619041e-03 63.7508 475.0706)" class="st8" width="3" height="31.8"/>
	</g>
	<g>
		<g>
			<g>
				<path class="st2" d="M257.5,236.2c0,0.8-0.6,1.5-1.4,1.5c-0.8,0-1.4-0.7-1.4-1.5c0-0.8,0.6-1.5,1.4-1.5
					C256.9,234.7,257.5,235.4,257.5,236.2z"/>
			</g>
			<g>
				<path class="st2" d="M261.8,236.2c0,0.8-0.6,1.5-1.4,1.5c-0.8,0-1.4-0.7-1.4-1.5c0-0.8,0.6-1.5,1.4-1.5
					C261.2,234.7,261.8,235.4,261.8,236.2z"/>
			</g>
			<g>
				<path class="st2" d="M266.1,236.3c0,0.8-0.6,1.5-1.4,1.5c-0.8,0-1.4-0.7-1.4-1.5c0-0.8,0.6-1.5,1.4-1.5
					C265.5,234.8,266.1,235.4,266.1,236.3z"/>
			</g>
			<g>
				<path class="st2" d="M270.4,236.3c0,0.8-0.6,1.5-1.4,1.5c-0.8,0-1.4-0.7-1.4-1.5c0-0.8,0.6-1.5,1.4-1.5
					C269.8,234.8,270.4,235.5,270.4,236.3z"/>
			</g>
			<g>
				<path class="st2" d="M274.7,236.3c0,0.8-0.6,1.5-1.4,1.5c-0.8,0-1.4-0.7-1.4-1.5c0-0.8,0.6-1.5,1.4-1.5
					C274.1,234.8,274.7,235.5,274.7,236.3z"/>
			</g>
			<g>
				<path class="st2" d="M279.1,236.3c0,0.8-0.6,1.5-1.4,1.5c-0.8,0-1.4-0.7-1.4-1.5c0-0.8,0.6-1.5,1.4-1.5
					C278.4,234.8,279.1,235.5,279.1,236.3z"/>
			</g>
			<g>
				<path class="st2" d="M283.4,236.3c0,0.8-0.6,1.5-1.4,1.5c-0.8,0-1.4-0.7-1.4-1.5c0-0.8,0.6-1.5,1.4-1.5
					C282.8,234.8,283.4,235.5,283.4,236.3z"/>
			</g>
			<g>
				<path class="st2" d="M287.7,236.4c0,0.8-0.6,1.5-1.4,1.5c-0.8,0-1.4-0.7-1.4-1.5c0-0.8,0.6-1.5,1.4-1.5
					C287.1,234.9,287.7,235.5,287.7,236.4z"/>
			</g>
			<g>
				<path class="st2" d="M292,236.4c0,0.8-0.6,1.5-1.4,1.5c-0.8,0-1.4-0.7-1.4-1.5c0-0.8,0.6-1.5,1.4-1.5
					C291.4,234.9,292,235.6,292,236.4z"/>
			</g>
		</g>
		<g class="st9">
			<g>
				<path class="st1" d="M257.5,236.2c0,0.8-0.6,1.5-1.4,1.5c-0.8,0-1.4-0.7-1.4-1.5c0-0.8,0.6-1.5,1.4-1.5
					C256.9,234.7,257.5,235.4,257.5,236.2z"/>
			</g>
			<g>
				<path class="st1" d="M261.8,236.2c0,0.8-0.6,1.5-1.4,1.5c-0.8,0-1.4-0.7-1.4-1.5c0-0.8,0.6-1.5,1.4-1.5
					C261.2,234.7,261.8,235.4,261.8,236.2z"/>
			</g>
			<g>
				<path class="st1" d="M266.1,236.3c0,0.8-0.6,1.5-1.4,1.5c-0.8,0-1.4-0.7-1.4-1.5c0-0.8,0.6-1.5,1.4-1.5
					C265.5,234.8,266.1,235.4,266.1,236.3z"/>
			</g>
			<g>
				<path class="st1" d="M270.4,236.3c0,0.8-0.6,1.5-1.4,1.5c-0.8,0-1.4-0.7-1.4-1.5c0-0.8,0.6-1.5,1.4-1.5
					C269.8,234.8,270.4,235.5,270.4,236.3z"/>
			</g>
			<g>
				<path class="st1" d="M274.7,236.3c0,0.8-0.6,1.5-1.4,1.5c-0.8,0-1.4-0.7-1.4-1.5c0-0.8,0.6-1.5,1.4-1.5
					C274.1,234.8,274.7,235.5,274.7,236.3z"/>
			</g>
			<g>
				<path class="st1" d="M279.1,236.3c0,0.8-0.6,1.5-1.4,1.5c-0.8,0-1.4-0.7-1.4-1.5c0-0.8,0.6-1.5,1.4-1.5
					C278.4,234.8,279.1,235.5,279.1,236.3z"/>
			</g>
			<g>
				<path class="st1" d="M283.4,236.3c0,0.8-0.6,1.5-1.4,1.5c-0.8,0-1.4-0.7-1.4-1.5c0-0.8,0.6-1.5,1.4-1.5
					C282.8,234.8,283.4,235.5,283.4,236.3z"/>
			</g>
			<g>
				<path class="st1" d="M287.7,236.4c0,0.8-0.6,1.5-1.4,1.5c-0.8,0-1.4-0.7-1.4-1.5c0-0.8,0.6-1.5,1.4-1.5
					C287.1,234.9,287.7,235.5,287.7,236.4z"/>
			</g>
			<g>
				<path class="st1" d="M292,236.4c0,0.8-0.6,1.5-1.4,1.5c-0.8,0-1.4-0.7-1.4-1.5c0-0.8,0.6-1.5,1.4-1.5
					C291.4,234.9,292,235.6,292,236.4z"/>
			</g>
		</g>
	</g>
	<g>
		<g>
			<path class="st2" d="M285.9,138.6c0.9-0.4,1.6-1.3,1.6-2.4c0-1.4-1.1-2.6-2.5-2.6s-2.5,1.2-2.5,2.6c0,1.1,0.6,2.1,1.6,2.5
				c-3.8,0.6-3.6,4.7-3.6,4.7l9,0C289.4,143.4,289.6,139.2,285.9,138.6z"/>
			<path class="st6" d="M285.9,138.6c0.9-0.4,1.6-1.3,1.6-2.4c0-1.4-1.1-2.6-2.5-2.6s-2.5,1.2-2.5,2.6c0,1.1,0.6,2.1,1.6,2.5
				c-3.8,0.6-3.6,4.7-3.6,4.7l9,0C289.4,143.4,289.6,139.2,285.9,138.6z"/>
		</g>
		<g>
			
				<rect x="282.5" y="131.9" transform="matrix(4.615052e-03 -1 1 4.615052e-03 135.2388 431.6709)" class="st2" width="3.8" height="31.9"/>
			
				<rect x="282.5" y="131.9" transform="matrix(4.615052e-03 -1 1 4.615052e-03 135.2388 431.6709)" class="st8" width="3.8" height="31.9"/>
		</g>
	</g>
</g>
</svg>
