<?xml version="1.0" encoding="utf-8"?>
<!-- Generator: Adobe Illustrator 24.1.0, SVG Export Plug-In . SVG Version: 6.00 Build 0)  -->
<svg version="1.1" id="Capa_1" xmlns="http://www.w3.org/2000/svg" xmlns:xlink="http://www.w3.org/1999/xlink" x="0px" y="0px"
	 viewBox="0 0 613.2 490.2" style="enable-background:new 0 0 613.2 490.2;" xml:space="preserve">
<style type="text/css">
	.st0{fill:#375A64;}
	.st1{fill:#FFFFFF;}
	.st2{fill:#FF4F5B;}
	.st3{fill:#E9E9E4;}
	.st4{font-family:'ArialMT';}
	.st5{font-size:16.0693px;}
</style>
<g>
	<g>
		<g>
			<g>
				<path class="st0" d="M359.9,426.7l-127.8-0.6c-15.4-0.1-27.8-12.6-27.7-27.9l1.4-320.3c0.1-15.4,12.6-27.8,28-27.7l127.8,0.6
					c15.4,0.1,27.8,12.6,27.7,27.9L387.9,399C387.8,414.3,375.3,426.7,359.9,426.7z"/>
			</g>
			<g>
				<path class="st1" d="M361.3,61.8l-24.8-0.1c-3.3,0-6,2.8-6,6.3v4.5c0,3.5-2.7,6.3-6,6.3l-48.3-0.2c-3.3,0-6-2.8-6-6.3v-4.5
					c0-3.5-2.7-6.3-6-6.3h-8.7l-21.7-0.3c-10.8-0.1-19.5,8.6-19.6,19.4l-1.3,312.6c-0.1,10.8,8.6,19.5,19.4,19.6l127.5,0.6
					c10.8,0.1,19.5-8.6,19.6-19.4l1.3-312.6C380.8,70.6,372.1,61.8,361.3,61.8z"/>
			</g>
			<g>
				<g>
					<g>
						<g>
							<path class="st2" d="M360.8,353.6L231,353c-1.3,0-2.4-1.6-2.4-3.6l0.2-37.6c0-2,1.1-3.6,2.4-3.6l129.8,0.6
								c1.3,0,2.4,1.6,2.4,3.6l-0.2,37.5C363.2,352,362.1,353.6,360.8,353.6z"/>
						</g>
						<g>
							<text transform="matrix(0.7229 4.016641e-03 -3.548731e-03 1 238.8 336.5036)" class="st3 st4 st5">www.fixu.com.co</text>
						</g>
					</g>
				</g>
			</g>
		</g>
	</g>
	
		<image style="overflow:visible;" width="207" height="155" xlink:href="Logo.png"  transform="matrix(0.517 0 0 0.5762 243.3795 142.498)">
	</image>
</g>
</svg>
