<?xml version="1.0" encoding="utf-8"?>
<!-- Generator: Adobe Illustrator 24.0.2, SVG Export Plug-In . SVG Version: 6.00 Build 0)  -->
<svg version="1.1" id="Capa_1" xmlns="http://www.w3.org/2000/svg" xmlns:xlink="http://www.w3.org/1999/xlink" x="0px" y="0px"
	 viewBox="0 0 841.89 595.28" style="enable-background:new 0 0 841.89 595.28;" xml:space="preserve">
<style type="text/css">
	.st0{fill:#575756;}
	.st1{fill:#6F6F6E;}
	.st2{fill:#3C3C3B;}
	.st3{fill:#F7A900;}
	.st4{fill:#FFD300;}
</style>
<g>
	<g>
		<path class="st0" d="M439.05,159.28c-26.71,0-48.45,21.73-48.45,48.44v84.94h22.6v-84.94c0-14.25,11.6-25.85,25.85-25.85
			c14.25,0,25.85,11.6,25.85,25.85v84.94h22.6v-84.94C487.5,181.01,465.76,159.28,439.05,159.28z"/>
		<g>
			<path class="st1" d="M446.93,159.92c-2.56-0.42-5.2-0.64-7.88-0.64c-26.71,0-48.45,21.73-48.45,48.44v84.94h9.17v-84.94
				C399.77,183.69,412.26,167.37,446.93,159.92z"/>
			<path class="st2" d="M454.8,181.87c-2.75,0-5.39,0.43-7.88,1.24c10.41,3.34,17.97,13.11,17.97,24.62v84.94h9.22v-84.94
				C474.12,193.47,464.83,181.87,454.8,181.87z"/>
		</g>
		<path class="st3" d="M509.41,306.9c0,38.87-31.51,70.38-70.37,70.38c-38.87,0-70.37-31.51-70.37-70.38
			c0-38.86,31.51-70.37,70.37-70.37C477.91,236.53,509.41,268.04,509.41,306.9z"/>
		<path class="st4" d="M499.72,306.9c0,33.52-27.16,60.67-60.67,60.67c-33.51,0-60.67-27.16-60.67-60.67
			c0-33.51,27.16-60.66,60.67-60.66C472.55,246.24,499.72,273.39,499.72,306.9z"/>
		<path class="st2" d="M456.28,297.08c0-9.52-7.71-17.23-17.23-17.23c-9.51,0-17.23,7.71-17.23,17.23c0,6.26,3.36,11.74,8.36,14.75
			l-6.14,31.01h30.01l-6.14-31.01C452.91,308.82,456.28,303.35,456.28,297.08z"/>
	</g>
</g>
</svg>
