<?xml version="1.0" encoding="utf-8"?>
<!-- Generator: Adobe Illustrator 24.0.2, SVG Export Plug-In . SVG Version: 6.00 Build 0)  -->
<svg version="1.1" id="Capa_1" xmlns="http://www.w3.org/2000/svg" xmlns:xlink="http://www.w3.org/1999/xlink" x="0px" y="0px"
	 viewBox="0 0 2309 1950" style="enable-background:new 0 0 2309 1950;" xml:space="preserve">
<style type="text/css">
	.st0{fill:#70706F;}
	.st1{fill:#3D3D3B;}
	.st2{fill:#E20E17;}
	.st3{fill:#E53720;}
	.st4{fill:#C7C7C6;}
	.st5{fill:#FFFFFF;}
</style>
<g>
	<g>
		<path class="st0" d="M1301.93,451.41l-137.72-111.23h-149.27L877.23,451.41c0,0,9.89,252.1,212.34,362.65
			C1292.02,703.51,1301.93,451.41,1301.93,451.41z"/>
		<path class="st1" d="M1155.84,360.65h-132.53l-122.34,98.83l0.15,3.57c0.09,2.25,2.43,55.68,26.25,121.58
			c22.06,61.03,67.51,144.24,158.78,194.06l3.42,1.87l3.42-1.87c91.26-49.82,136.72-133.03,158.79-194.06
			c23.82-65.9,26.16-119.33,26.25-121.58l0.13-3.57L1155.84,360.65z"/>
		<path class="st2" d="M1268.96,463.92l-116.33-93.97h-126.1l-116.34,93.97c0,0,8.37,212.98,179.39,306.34
			C1260.59,676.9,1268.96,463.92,1268.96,463.92z"/>
		<g>
			<path class="st1" d="M922.28,583.17c0,3.35-2.71,6.06-6.04,6.06c-3.35,0-6.06-2.71-6.06-6.06c0-3.33,2.71-6.06,6.06-6.06
				C919.57,577.11,922.28,579.84,922.28,583.17z"/>
			<path class="st1" d="M1268.96,583.17c0,3.35-2.71,6.06-6.04,6.06c-3.35,0-6.06-2.71-6.06-6.06c0-3.33,2.71-6.06,6.06-6.06
				C1266.25,577.11,1268.96,579.84,1268.96,583.17z"/>
		</g>
		<g>
			<path class="st1" d="M992.43,711.22c0,3.35-2.72,6.06-6.06,6.06c-3.35,0-6.06-2.71-6.06-6.06c0-3.35,2.71-6.06,6.06-6.06
				C989.71,705.17,992.43,707.88,992.43,711.22z"/>
			<path class="st1" d="M1198.82,711.22c0,3.35-2.69,6.06-6.04,6.06c-3.35,0-6.06-2.71-6.06-6.06c0-3.35,2.71-6.06,6.06-6.06
				C1196.13,705.17,1198.82,707.88,1198.82,711.22z"/>
		</g>
		<g>
			<path class="st1" d="M895.44,458.18c0,3.33-2.72,6.04-6.06,6.04c-3.35,0-6.06-2.71-6.06-6.04c0-3.35,2.71-6.06,6.06-6.06
				C892.71,452.12,895.44,454.83,895.44,458.18z"/>
			<path class="st1" d="M1295.81,458.18c0,3.33-2.71,6.04-6.04,6.04c-3.35,0-6.06-2.71-6.06-6.04c0-3.35,2.71-6.06,6.06-6.06
				C1293.1,452.12,1295.81,454.83,1295.81,458.18z"/>
		</g>
		<path class="st1" d="M1095.63,797.54c0,3.33-2.71,6.04-6.06,6.04c-3.33,0-6.04-2.71-6.04-6.04c0-3.35,2.71-6.06,6.04-6.06
			C1092.92,791.49,1095.63,794.19,1095.63,797.54z"/>
		<g>
			<path class="st1" d="M1024.97,350.76c0,3.33-2.71,6.04-6.06,6.04s-6.06-2.71-6.06-6.04c0-3.35,2.71-6.06,6.06-6.06
				S1024.97,347.42,1024.97,350.76z"/>
			<path class="st1" d="M1166.29,350.76c0,3.33-2.72,6.04-6.06,6.04c-3.35,0-6.06-2.71-6.06-6.04c0-3.35,2.71-6.06,6.06-6.06
				C1163.57,344.71,1166.29,347.42,1166.29,350.76z"/>
		</g>
		<g>
			<path class="st3" d="M911.1,462.8l319.8,149.03c7.86-17.52,14.08-34.66,19.03-50.71L957.87,425.03L911.1,462.8z"/>
			<path class="st3" d="M1215.39,642.75c4.47-8.02,8.59-16.05,12.35-24.03L910.19,470.74c0.56,6.57,1.73,17.56,4.13,31.73
				L1215.39,642.75z"/>
		</g>
		<path class="st4" d="M1233.11,434.91c-4.07,43.5-29.97,222.89-184.15,308.74c12.41,9.59,25.91,18.54,40.63,26.58
			c171.04-93.36,179.4-306.33,179.4-306.33L1233.11,434.91z"/>
	</g>
	<g>
		<path class="st5" d="M1108,697.6c-5.18,5.05-11.33,7.57-18.43,7.57c-7.24,0-13.37-2.52-18.42-7.57
			c-5.03-5.03-7.55-11.18-7.55-18.42c0-7.09,2.52-13.24,7.55-18.42c5.05-5.03,11.18-7.55,18.42-7.55c7.11,0,13.25,2.52,18.43,7.55
			c5.03,5.18,7.55,11.33,7.55,18.42C1115.55,686.42,1113.04,692.57,1108,697.6z M1064.37,424.44l4.46,210.74h37.04l8.91-210.74
			H1064.37z"/>
	</g>
	<line class="st5" x1="1089.57" y1="635.18" x2="1089.57" y2="424.44"/>
</g>
</svg>
