<?xml version="1.0" encoding="utf-8"?>
<!-- Generator: Adobe Illustrator 24.0.2, SVG Export Plug-In . SVG Version: 6.00 Build 0)  -->
<svg version="1.1" id="Capa_1" xmlns="http://www.w3.org/2000/svg" xmlns:xlink="http://www.w3.org/1999/xlink" x="0px" y="0px"
	 viewBox="0 0 561.5 430.6" style="enable-background:new 0 0 561.5 430.6;" xml:space="preserve">
<style type="text/css">
	.st0{fill:#375A64;}
	.st1{fill:#FFFFFF;}
	.st2{fill:#FF4F5B;}
	.st3{fill:#E9E9E4;}
	.st4{font-family:'MontserratSubrayada-Bold';}
	.st5{font-size:17.8197px;}
	.st6{opacity:0.1;enable-background:new    ;}
	.st7{fill:#E1E1E1;}
	.st8{opacity:0.2;fill:#FFFFFF;enable-background:new    ;}
	.st9{opacity:0.2;}
</style>
<g>
	<g>
		<g>
			<path class="st0" d="M330.1,368.8l-104.7-0.5c-12.6-0.1-22.8-10.3-22.7-22.9l1.1-262.5c0.1-12.6,10.3-22.8,22.9-22.7l104.7,0.5
				c12.6,0.1,22.8,10.3,22.7,22.9L353,346C353,358.7,342.7,368.8,330.1,368.8z"/>
		</g>
		<g>
			<path class="st1" d="M331.3,69.7L311,69.6c-2.7,0-4.9,2.3-4.9,5.1l0,3.7c0,2.8-2.2,5.1-4.9,5.1l-39.6-0.2c-2.7,0-4.9-2.3-4.9-5.2
				l0-3.7c0-2.8-2.2-5.2-4.9-5.2l-7.1,0l-17.8-0.1c-8.8,0-16,7.1-16,15.9l-1.1,256.2c0,8.8,7.1,16,15.9,16l104.5,0.5
				c8.8,0,16-7.1,16-15.9l1.1-256.2C347.2,77,340.1,69.8,331.3,69.7z"/>
		</g>
		<g>
			<g>
				<g>
					<g>
						<path class="st2" d="M330.6,335.3l-106.4-0.5c-1.1,0-2-1.3-2-3l0.1-30.8c0-1.6,0.9-2.9,2-2.9l106.4,0.5c1.1,0,2,1.3,2,3
							l-0.1,30.8C332.6,334,331.7,335.3,330.6,335.3z"/>
					</g>
					<g>
						<text transform="matrix(0.8654 4.016639e-03 -4.247983e-03 1 238.2837 324.1432)" class="st3 st4 st5">Aceptar</text>
					</g>
				</g>
			</g>
		</g>
	</g>
</g>
<g>
	<g>
		
			<rect x="235.9" y="130.6" transform="matrix(4.615650e-03 -1 1 4.615650e-03 93.2094 381.7238)" class="st2" width="4.9" height="27"/>
		
			<rect x="235.9" y="130.6" transform="matrix(4.615650e-03 -1 1 4.615650e-03 93.2094 381.7238)" class="st6" width="4.9" height="27"/>
	</g>
	<g>
		<g>
			<path class="st7" d="M330.9,172c0,0,0.2,0,0.6-0.1c0.4-0.1,1-0.6,1-1.4c0-1.7,0-4.1,0-7.2c0-1.6,0-3.3,0-5.2c0-0.5,0-1,0-1.5
				c0-0.5,0-1-0.3-1.4c-0.3-0.4-0.7-0.6-1.2-0.6c-0.5,0-1.1,0-1.6,0c-4.5,0-9.5,0-15.1,0c-22.5-0.1-53.4-0.2-87.7-0.3
				c-0.5,0-0.9,0.2-1.2,0.6c-0.3,0.4-0.3,0.8-0.3,1.4c0,1.1,0,2.1,0,3.2c0,2.1,0,4.2,0,6.3c0,1,0,2.1,0,3.1c0,0.5-0.1,1.1,0,1.5
				c0.1,0.4,0.4,0.8,0.8,0.9c0.2,0.1,0.4,0.1,0.6,0.1h0.8l1.5,0c1,0,2,0,3,0c8.1,0,15.9,0.1,23.3,0.1c14.8,0.1,28.2,0.2,39.4,0.2
				c11.2,0.1,20.3,0.2,26.6,0.2c3.1,0,5.6,0.1,7.2,0.1c0.8,0,1.4,0,1.9,0C330.7,172,330.9,172,330.9,172s-0.2,0-0.6,0
				c-0.4,0-1.1,0-1.9,0c-1.7,0-4.1,0-7.2,0c-6.3,0-15.4,0-26.6,0c-11.2,0-24.6-0.1-39.4-0.1c-7.4,0-15.2-0.1-23.3-0.1c-1,0-2,0-3,0
				l-1.5,0h-0.8c-0.3,0-0.6,0-0.9-0.2c-0.5-0.2-1-0.7-1.1-1.3c-0.1-0.3-0.1-0.6-0.1-0.8v-0.8c0-1,0-2.1,0-3.1c0-2.1,0-4.2,0-6.3
				c0-1.1,0-2.1,0-3.2c0-0.3,0-0.5,0-0.8c0-0.3,0.2-0.6,0.3-0.8c0.4-0.5,1-0.8,1.6-0.8c34.2,0.2,65.2,0.4,87.7,0.5
				c5.6,0,10.7,0.1,15.1,0.1c0.6,0,1.1,0,1.6,0c0.6,0,1.1,0.3,1.5,0.8c0.4,0.5,0.4,1.1,0.3,1.5c0,0.5,0,1,0,1.5c0,1.9,0,3.6,0,5.2
				c0,3.1-0.1,5.6-0.1,7.2c-0.1,0.9-0.7,1.3-1.1,1.5C331.1,172,330.9,172,330.9,172z"/>
		</g>
	</g>
	<g>
		
			<rect x="254.4" y="138.3" transform="matrix(4.619080e-03 -1 1 4.619080e-03 92.6155 418.9574)" class="st2" width="4.6" height="49.3"/>
		
			<rect x="254.4" y="138.3" transform="matrix(4.619080e-03 -1 1 4.619080e-03 92.6155 418.9574)" class="st8" width="4.6" height="49.3"/>
	</g>
	<g>
		
			<rect x="235.7" y="175.7" transform="matrix(4.615634e-03 -1 1 4.615634e-03 47.8754 426.4734)" class="st2" width="4.9" height="27"/>
		
			<rect x="235.7" y="175.7" transform="matrix(4.615634e-03 -1 1 4.615634e-03 47.8754 426.4734)" class="st6" width="4.9" height="27"/>
	</g>
	<g>
		<g>
			<path class="st7" d="M330.2,217.1c0,0,0.2,0,0.6-0.1c0.4-0.1,1-0.4,1.3-1.2c0.2-0.4,0.2-0.8,0.2-1.3c0-0.5,0-1.1,0-1.7
				c0-1.2,0-2.6,0-4.2c0-1.6,0-3.3,0-5.2c0-0.5,0-1,0-1.5c0-0.5,0-1-0.3-1.4c-0.3-0.4-0.7-0.7-1.1-0.9c-0.5-0.1-1-0.1-1.6-0.1
				c-4.4,0-9.5,0-15.1,0c-22.4-0.1-53.3-0.2-87.4-0.3c-0.9,0-1.8,0.8-1.9,1.7c0,1,0,2.1,0,3.1c0,2.1,0,4.2,0,6.3c0,1,0,2.1,0,3.1
				c0,0.5-0.1,1,0.1,1.5c0.1,0.4,0.4,0.8,0.8,1.1c0.4,0.3,0.8,0.4,1.3,0.3l1.5,0c1,0,2,0,3,0c8,0,15.8,0.1,23.2,0.1
				c14.8,0.1,28.1,0.2,39.3,0.2c11.2,0.1,20.2,0.2,26.5,0.2c3.1,0,5.5,0.1,7.2,0.1c0.8,0,1.4,0,1.9,0
				C330,217.1,330.2,217.1,330.2,217.1s-0.2,0-0.6,0c-0.4,0-1.1,0-1.9,0c-1.7,0-4.1,0-7.2,0c-6.3,0-15.3,0-26.5,0
				c-11.2,0-24.5-0.1-39.3-0.1c-7.4,0-15.2-0.1-23.2-0.1c-1,0-2,0-3,0l-1.5,0c-0.5,0-1.1-0.1-1.6-0.4c-0.5-0.3-0.8-0.8-1-1.4
				c-0.2-0.6-0.1-1.1-0.1-1.6c0-1,0-2.1,0-3.1c0-2.1,0-4.2,0-6.3c0-1.1,0-2.1,0-3.2c0.1-1.2,1.2-2.2,2.5-2.2
				c34.1,0.2,65,0.4,87.4,0.5c5.6,0,10.6,0.1,15.1,0.1c0.5,0,1.1-0.1,1.7,0.1c0.5,0.2,1,0.5,1.3,1c0.3,0.5,0.4,1,0.3,1.5
				c0,0.5,0,1,0,1.5c0,1.9,0,3.6,0,5.2c0,1.6,0,2.9,0,4.2c0,0.6,0,1.2,0,1.7c0,0.5,0,1-0.2,1.4c-0.4,0.8-1,1.1-1.4,1.2
				C330.4,217.2,330.2,217.1,330.2,217.1z"/>
		</g>
	</g>
	<g>
		
			<rect x="235.5" y="222.8" transform="matrix(4.596210e-03 -1 1 4.596210e-03 0.6067 473.137)" class="st2" width="4.9" height="27"/>
		
			<rect x="235.5" y="222.8" transform="matrix(4.596210e-03 -1 1 4.596210e-03 0.6067 473.137)" class="st6" width="4.9" height="27"/>
	</g>
	<g>
		<g>
			<path class="st7" d="M330,264.2c0,0,0.2,0,0.6-0.1c0.4-0.1,1-0.4,1.3-1.2c0.2-0.4,0.2-0.8,0.2-1.3c0-0.5,0-1.1,0-1.7
				c0-1.2,0-2.6,0-4.2c0-1.6,0-3.3,0-5.2c0-0.5,0-1,0-1.5c0-0.5,0-1-0.3-1.4c-0.3-0.4-0.7-0.7-1.1-0.9c-0.5-0.1-1-0.1-1.6-0.1
				c-4.4,0-9.5,0-15.1,0c-22.4-0.1-53.3-0.2-87.4-0.3c-0.9,0-1.8,0.7-1.9,1.7c0,1,0,2.1,0,3.1c0,2.1,0,4.2,0,6.3c0,1,0,2.1,0,3.1
				c0,0.5-0.1,1,0.1,1.5c0.1,0.4,0.4,0.8,0.8,1.1c0.4,0.3,0.8,0.4,1.3,0.3l1.5,0c1,0,2,0,3,0c8,0,15.8,0.1,23.2,0.1
				c14.8,0.1,28.1,0.2,39.3,0.2c11.2,0.1,20.2,0.2,26.5,0.2c3.1,0,5.5,0.1,7.2,0.1c0.8,0,1.4,0,1.9,0
				C329.8,264.2,330,264.2,330,264.2s-0.2,0-0.6,0c-0.4,0-1.1,0-1.9,0c-1.7,0-4.1,0-7.2,0c-6.3,0-15.3,0-26.5,0
				c-11.2,0-24.5-0.1-39.3-0.1c-7.4,0-15.2-0.1-23.2-0.1c-1,0-2,0-3,0l-1.5,0c-0.5,0-1.1-0.1-1.6-0.4c-0.5-0.3-0.8-0.8-1-1.4
				c-0.2-0.6-0.1-1.1-0.1-1.6c0-1,0-2.1,0-3.1c0-2.1,0-4.2,0-6.3c0-1.1,0-2.1,0-3.2c0.1-1.2,1.2-2.2,2.5-2.2
				c34.1,0.2,65,0.4,87.4,0.5c5.6,0,10.6,0.1,15.1,0.1c0.5,0,1.1-0.1,1.7,0.1c0.5,0.2,1,0.5,1.3,1c0.3,0.5,0.4,1,0.3,1.5
				c0,0.5,0,1,0,1.5c0,1.9,0,3.6,0,5.2c0,1.6,0,2.9,0,4.2c0,0.6,0,1.2,0,1.7c0,0.5,0,1-0.2,1.4c-0.4,0.8-1,1.1-1.4,1.2
				C330.2,264.2,330,264.2,330,264.2z"/>
		</g>
	</g>
	<g>
		
			<rect x="254.3" y="183.4" transform="matrix(4.619041e-03 -1 1 4.619041e-03 47.2813 463.707)" class="st2" width="4.6" height="49.3"/>
		
			<rect x="254.3" y="183.4" transform="matrix(4.619041e-03 -1 1 4.619041e-03 47.2813 463.707)" class="st8" width="4.6" height="49.3"/>
	</g>
	<g>
		<g>
			<g>
				<path class="st2" d="M236.4,255.6c0,1.3-1,2.3-2.2,2.3c-1.2,0-2.1-1-2.1-2.3c0-1.3,1-2.3,2.2-2.3
					C235.4,253.3,236.4,254.4,236.4,255.6z"/>
			</g>
			<g>
				<path class="st2" d="M243.1,255.7c0,1.3-1,2.3-2.2,2.3c-1.2,0-2.1-1-2.1-2.3c0-1.3,1-2.3,2.2-2.3
					C242.1,253.4,243.1,254.4,243.1,255.7z"/>
			</g>
			<g>
				<path class="st2" d="M249.8,255.7c0,1.3-1,2.3-2.2,2.3c-1.2,0-2.1-1-2.1-2.3c0-1.3,1-2.3,2.2-2.3
					C248.8,253.4,249.8,254.4,249.8,255.7z"/>
			</g>
			<g>
				<path class="st2" d="M256.4,255.7c0,1.3-1,2.3-2.2,2.3c-1.2,0-2.1-1-2.1-2.3c0-1.3,1-2.3,2.2-2.3
					C255.5,253.4,256.4,254.5,256.4,255.7z"/>
			</g>
			<g>
				<path class="st2" d="M263.1,255.8c0,1.3-1,2.3-2.2,2.3c-1.2,0-2.1-1-2.1-2.3c0-1.3,1-2.3,2.2-2.3
					C262.2,253.5,263.1,254.5,263.1,255.8z"/>
			</g>
			<g>
				<path class="st2" d="M269.8,255.8c0,1.3-1,2.3-2.2,2.3c-1.2,0-2.1-1-2.1-2.3c0-1.3,1-2.3,2.2-2.3
					C268.8,253.5,269.8,254.5,269.8,255.8z"/>
			</g>
			<g>
				<path class="st2" d="M276.5,255.8c0,1.3-1,2.3-2.2,2.3c-1.2,0-2.1-1-2.1-2.3c0-1.3,1-2.3,2.2-2.3
					C275.5,253.5,276.5,254.6,276.5,255.8z"/>
			</g>
			<g>
				<path class="st2" d="M283.2,255.9c0,1.3-1,2.3-2.2,2.3s-2.1-1-2.1-2.3c0-1.3,1-2.3,2.2-2.3C282.2,253.6,283.2,254.6,283.2,255.9
					z"/>
			</g>
			<g>
				<path class="st2" d="M289.8,255.9c0,1.3-1,2.3-2.2,2.3c-1.2,0-2.1-1-2.1-2.3c0-1.3,1-2.3,2.2-2.3
					C288.9,253.6,289.8,254.6,289.8,255.9z"/>
			</g>
		</g>
		<g class="st9">
			<g>
				<path class="st1" d="M236.4,255.6c0,1.3-1,2.3-2.2,2.3c-1.2,0-2.1-1-2.1-2.3c0-1.3,1-2.3,2.2-2.3
					C235.4,253.3,236.4,254.4,236.4,255.6z"/>
			</g>
			<g>
				<path class="st1" d="M243.1,255.7c0,1.3-1,2.3-2.2,2.3c-1.2,0-2.1-1-2.1-2.3c0-1.3,1-2.3,2.2-2.3
					C242.1,253.4,243.1,254.4,243.1,255.7z"/>
			</g>
			<g>
				<path class="st1" d="M249.8,255.7c0,1.3-1,2.3-2.2,2.3c-1.2,0-2.1-1-2.1-2.3c0-1.3,1-2.3,2.2-2.3
					C248.8,253.4,249.8,254.4,249.8,255.7z"/>
			</g>
			<g>
				<path class="st1" d="M256.4,255.7c0,1.3-1,2.3-2.2,2.3c-1.2,0-2.1-1-2.1-2.3c0-1.3,1-2.3,2.2-2.3
					C255.5,253.4,256.4,254.5,256.4,255.7z"/>
			</g>
			<g>
				<path class="st1" d="M263.1,255.8c0,1.3-1,2.3-2.2,2.3c-1.2,0-2.1-1-2.1-2.3c0-1.3,1-2.3,2.2-2.3
					C262.2,253.5,263.1,254.5,263.1,255.8z"/>
			</g>
			<g>
				<path class="st1" d="M269.8,255.8c0,1.3-1,2.3-2.2,2.3c-1.2,0-2.1-1-2.1-2.3c0-1.3,1-2.3,2.2-2.3
					C268.8,253.5,269.8,254.5,269.8,255.8z"/>
			</g>
			<g>
				<path class="st1" d="M276.5,255.8c0,1.3-1,2.3-2.2,2.3c-1.2,0-2.1-1-2.1-2.3c0-1.3,1-2.3,2.2-2.3
					C275.5,253.5,276.5,254.6,276.5,255.8z"/>
			</g>
			<g>
				<path class="st1" d="M283.2,255.9c0,1.3-1,2.3-2.2,2.3s-2.1-1-2.1-2.3c0-1.3,1-2.3,2.2-2.3C282.2,253.6,283.2,254.6,283.2,255.9
					z"/>
			</g>
			<g>
				<path class="st1" d="M289.8,255.9c0,1.3-1,2.3-2.2,2.3c-1.2,0-2.1-1-2.1-2.3c0-1.3,1-2.3,2.2-2.3
					C288.9,253.6,289.8,254.6,289.8,255.9z"/>
			</g>
		</g>
	</g>
	<g>
		<g>
			<path class="st2" d="M280.4,104.6c1.4-0.6,2.4-2,2.4-3.8c0-2.2-1.7-4.1-3.8-4.1c-2.1,0-3.8,1.8-3.8,4c0,1.7,1,3.2,2.4,3.8
				c-5.9,0.9-5.6,7.3-5.6,7.3l13.9,0.1C285.9,111.9,286.2,105.4,280.4,104.6z"/>
			<path class="st6" d="M280.4,104.6c1.4-0.6,2.4-2,2.4-3.8c0-2.2-1.7-4.1-3.8-4.1c-2.1,0-3.8,1.8-3.8,4c0,1.7,1,3.2,2.4,3.8
				c-5.9,0.9-5.6,7.3-5.6,7.3l13.9,0.1C285.9,111.9,286.2,105.4,280.4,104.6z"/>
		</g>
		<g>
			
				<rect x="275.2" y="94.2" transform="matrix(4.615052e-03 -1 1 4.615052e-03 157.9679 396.5092)" class="st2" width="5.9" height="49.5"/>
			
				<rect x="275.2" y="94.2" transform="matrix(4.615052e-03 -1 1 4.615052e-03 157.9679 396.5092)" class="st8" width="5.9" height="49.5"/>
		</g>
	</g>
</g>
</svg>
