<?xml version="1.0" encoding="utf-8"?>
<!-- Generator: Adobe Illustrator 24.1.0, SVG Export Plug-In . SVG Version: 6.00 Build 0)  -->
<svg version="1.1" id="Capa_1" xmlns="http://www.w3.org/2000/svg" xmlns:xlink="http://www.w3.org/1999/xlink" x="0px" y="0px"
	 viewBox="0 0 841.9 595.3" style="enable-background:new 0 0 841.9 595.3;" xml:space="preserve">
<style type="text/css">
	.st0{fill:#375A64;}
	.st1{fill:#FFFFFF;}
	.st2{fill:#FF4F5B;}
	.st3{fill:#E9E9E4;}
	.st4{font-family:'ArialMT';}
	.st5{font-size:16.0693px;}
	.st6{fill:#B31E23;}
	.st7{fill:#EE1927;}
</style>
<g>
	<g>
		<g>
			<g>
				<path class="st0" d="M455.5,491.3l-127.8-0.6c-15.4-0.1-27.8-12.6-27.7-27.9l1.4-320.3c0.1-15.4,12.6-27.8,28-27.7l127.8,0.6
					c15.4,0.1,27.8,12.6,27.7,27.9l-1.4,320.3C483.4,478.9,470.8,491.4,455.5,491.3z"/>
			</g>
			<g>
				<path class="st1" d="M456.9,126.4l-24.8-0.1c-3.3,0-6,2.8-6,6.3v4.5c0,3.5-2.7,6.3-6,6.3l-48.3-0.2c-3.3,0-6-2.8-6-6.3v-4.5
					c0-3.5-2.7-6.3-6-6.3h-8.7l-21.7-0.1c-10.8-0.1-19.5,8.6-19.6,19.4L308.5,458c-0.1,10.8,8.6,19.5,19.4,19.6l127.5,0.6
					c10.8,0.1,19.5-8.6,19.6-19.4l1.3-312.6C476.3,135.2,467.6,126.4,456.9,126.4z"/>
			</g>
			<g>
				<g>
					<g>
						<g>
							<path class="st2" d="M456.3,418.2l-129.8-0.6c-1.3,0-2.4-1.6-2.4-3.6l0.2-37.6c0-2,1.1-3.6,2.4-3.6l129.8,0.6
								c1.3,0,2.4,1.6,2.4,3.6l-0.2,37.5C458.7,416.6,457.6,418.2,456.3,418.2z"/>
						</g>
						<g>
							<text transform="matrix(0.7229 4.016641e-03 -3.548731e-03 1 334.308 401.103)" class="st3 st4 st5">www.fixu.com.co</text>
						</g>
					</g>
				</g>
			</g>
		</g>
	</g>
	<g>
		<g>
			<g>
				<path class="st6" d="M458.5,324.5c0-14.6-11.8-26.4-26.4-26.4c-14.6,0-26.4,11.8-26.4,26.4c0,4,0.9,7.9,2.5,11.3l0,0l0.1,0.1
					l0,0l23.8,50.5l23.8-50.7l0,0C457.6,332.3,458.5,328.5,458.5,324.5z"/>
				<path class="st1" d="M432.1,386.9c-0.2,0-0.3-0.1-0.4-0.3l-23.8-50.5c0,0,0,0,0,0l-0.1-0.1c-1.7-3.6-2.6-7.5-2.6-11.5
					c0-14.8,12-26.8,26.8-26.8c14.8,0,26.8,12,26.8,26.8c0,4-0.8,7.8-2.5,11.3c0,0.1,0,0.1,0,0.2l-23.8,50.7
					C432.5,386.8,432.3,386.9,432.1,386.9z M408.7,335.7L408.7,335.7l23.4,49.7l23.4-49.6c0-0.1,0-0.1,0-0.2
					c1.6-3.5,2.5-7.2,2.5-11.1c0-14.3-11.6-25.9-25.9-25.9c-14.3,0-25.9,11.6-25.9,25.9c0,3.9,0.8,7.6,2.5,11.1L408.7,335.7z"/>
			</g>
			<path class="st7" d="M456.4,324.9c0-14.1-10.9-25.6-24.3-25.6c-13.4,0-24.3,11.5-24.3,25.6c0,3.9,0.8,7.6,2.3,11l0,0l0.1,0.1l0,0
				l21.9,38.5l22-38.6h0C455.6,332.5,456.4,328.8,456.4,324.9z"/>
			<path class="st1" d="M449.6,321.8c0,9.6-7.8,17.5-17.5,17.5c-9.6,0-17.5-7.8-17.5-17.5s7.8-17.5,17.5-17.5
				S449.6,312.2,449.6,321.8z"/>
		</g>
	</g>
	
		<image style="overflow:visible;enable-background:new    ;" width="207" height="155" xlink:href="C654D085.png"  transform="matrix(0.6262 0 0 0.6262 326.6905 189.9712)">
	</image>
</g>
</svg>
