<?xml version="1.0" encoding="utf-8"?>
<!-- Generator: Adobe Illustrator 24.0.2, SVG Export Plug-In . SVG Version: 6.00 Build 0)  -->
<svg version="1.1" xmlns="http://www.w3.org/2000/svg" xmlns:xlink="http://www.w3.org/1999/xlink" x="0px" y="0px"
	 viewBox="0 0 800 800" style="enable-background:new 0 0 800 800;" xml:space="preserve">
<style type="text/css">
	.st0{fill:none;stroke:#000000;stroke-width:3.9095;stroke-linecap:round;stroke-linejoin:round;stroke-miterlimit:10;}
	.st1{fill:none;}
	.st2{fill:none;stroke:#000000;stroke-width:3.9095;stroke-linecap:round;stroke-linejoin:round;stroke-miterlimit:2.6131;}
</style>
<g id="_x31_20">
	<g>
		<g>
			<g>
				<g id="XMLID_340_">
					<g>
						<path class="st0" d="M473.28,333.75l2.24,2l-3.09-0.32c-0.68-0.06-1.26,0.29-1.53,0.88l-1.26,2.83l-0.65-3
							c-0.11-0.68-0.68-1.15-1.32-1.2l-3.05-0.33l2.67-1.53c0.59-0.32,0.85-1,0.73-1.62l-0.64-3.06l2.29,2.09
							c0.5,0.44,1.2,0.5,1.76,0.18l2.68-1.56l-1.23,2.85C472.58,332.57,472.75,333.33,473.28,333.75z"/>
						<path class="st0" d="M285.29,333.75l2.26,2l-3.09-0.32c-0.68-0.06-1.29,0.29-1.56,0.88l-1.23,2.83l-0.64-3
							c-0.15-0.68-0.71-1.15-1.35-1.2l-3.03-0.33l2.67-1.53c0.59-0.32,0.85-1,0.71-1.62l-0.62-3.06l2.29,2.09
							c0.5,0.44,1.2,0.5,1.76,0.18l2.67-1.56l-1.26,2.85C284.58,332.57,284.79,333.33,285.29,333.75z"/>
						<path class="st0" d="M445.36,261.7c7.17,0,12.96,5.79,12.96,12.96c0,7.14-5.79,12.96-12.96,12.96
							c-7.17,0-12.99-5.82-12.99-12.96C432.37,267.5,438.19,261.7,445.36,261.7z"/>
						<path class="st0" d="M295.49,398.38c0-7.17,5.82-12.99,12.96-12.99c7.17,0,13,5.82,13,12.99c0,7.17-5.82,12.96-13,12.96
							C301.31,411.34,295.49,405.55,295.49,398.38z"/>
						<path class="st0" d="M373.94,427.3c7.17,0,12.96,5.82,12.96,12.96c0,7.17-5.79,12.96-12.96,12.96
							c-7.14,0-12.96-5.79-12.96-12.96C360.98,433.12,366.8,427.3,373.94,427.3z"/>
						<path class="st0" d="M373.94,219c7.17,0,12.96,5.79,12.96,12.96c0,7.17-5.79,12.97-12.96,12.97
							c-7.14,0-12.96-5.79-12.96-12.97C360.98,224.79,366.8,219,373.94,219z"/>
						<path class="st0" d="M443.54,385.39c7.14,0,12.96,5.82,12.96,12.99c0,7.17-5.82,12.96-12.96,12.96
							c-7.17,0-12.96-5.79-12.96-12.96C430.57,391.21,436.37,385.39,443.54,385.39z"/>
						<path class="st0" d="M304.63,287.63c-7.17,0-12.96-5.82-12.96-12.96c0-7.17,5.79-12.96,12.96-12.96
							c7.17,0,12.96,5.79,12.96,12.96C317.59,281.81,311.8,287.63,304.63,287.63z"/>
						<path class="st1" d="M472.43,335.42l3.09,0.32l-2.24-2c-0.53-0.41-0.7-1.18-0.41-1.79l1.23-2.85l-2.68,1.56
							c-0.56,0.32-1.26,0.26-1.76-0.18l-2.29-2.09l0.64,3.06c0.12,0.61-0.15,1.29-0.73,1.62l-2.67,1.53l3.05,0.33
							c0.64,0.06,1.21,0.53,1.32,1.2l0.65,3l1.26-2.83C471.17,335.72,471.75,335.36,472.43,335.42z M481.04,336.63
							c0.61,0.55,0.64,1.53,0.12,2.14c-0.35,0.35-0.82,0.53-1.29,0.47l-6.64-0.7l-2.7,6.11c-0.32,0.76-1.23,1.12-2,0.76
							c-0.5-0.18-0.79-0.65-0.88-1.15l-1.35-6.44l-6.64-0.68c-0.85-0.12-1.44-0.85-1.35-1.67c0.06-0.53,0.38-0.97,0.83-1.21
							l5.7-3.27l-1.38-6.55c-0.18-0.83,0.35-1.65,1.15-1.79c0.56-0.12,1.09,0.06,1.44,0.44l4.85,4.38l5.79-3.32
							c0.71-0.41,1.64-0.2,2.06,0.53c0.26,0.47,0.26,1,0.03,1.44l-2.67,6.06L481.04,336.63z"/>
						<path class="st1" d="M415.24,315.2h16.75c3.38,0,5.94,0.32,7.67,1c1.76,0.71,3.18,1.91,4.2,3.62
							c1.06,1.71,1.59,3.59,1.59,5.67c0,2.7-0.88,4.97-2.62,6.82c-1.73,1.82-4.41,2.97-8.02,3.47c1.32,0.65,2.32,1.27,3,1.91
							c1.47,1.32,2.85,3,4.15,5.03l6.56,10.28h-6.26l-5-7.85c-1.47-2.29-2.68-4.02-3.62-5.23c-0.94-1.21-1.79-2.03-2.53-2.56
							c-0.74-0.47-1.5-0.76-2.29-0.97c-0.56-0.14-1.47-0.18-2.76-0.18h-5.82V353h-4.99V315.2z M420.23,319.35v12.52h10.76
							c2.3,0,4.06-0.21,5.35-0.7c1.29-0.47,2.26-1.2,2.94-2.26c0.64-1.06,0.97-2.18,0.97-3.41c0-1.76-0.61-3.26-1.91-4.41
							c-1.29-1.15-3.35-1.73-6.14-1.73H420.23z"/>
						<path class="st1" d="M384.9,319.64v13.52h9.79c3.23,0,5.53-0.61,6.88-1.82c1.35-1.21,2.03-2.91,2.03-5.09
							c0-1.59-0.38-2.94-1.21-4.05c-0.79-1.15-1.85-1.88-3.14-2.26c-0.82-0.18-2.41-0.29-4.67-0.29H384.9z M379.88,353v-37.8h14.29
							c2.53,0,4.44,0.12,5.76,0.32c1.85,0.36,3.41,0.91,4.67,1.79c1.26,0.85,2.29,2.06,3.05,3.64c0.74,1.56,1.12,3.27,1.12,5.12
							c0,3.23-1,5.97-3.06,8.17c-2.06,2.24-5.76,3.35-11.11,3.35h-9.7V353H379.88z"/>
						<path class="st1" d="M346.75,319.64v28.95h8.05c2.5,0,4.47-0.26,5.88-0.71c1.41-0.47,2.53-1.12,3.38-2
							c1.17-1.17,2.12-2.76,2.79-4.76c0.64-2.03,0.97-4.44,0.97-7.32c0-3.94-0.65-7-1.94-9.14c-1.29-2.11-2.88-3.56-4.73-4.26
							c-1.32-0.53-3.5-0.76-6.47-0.76H346.75z M371.53,324.9c0.97,2.62,1.5,5.64,1.5,9c0,2.85-0.35,5.41-1.03,7.64
							c-0.64,2.21-1.53,4.06-2.58,5.5c-1.03,1.47-2.18,2.62-3.44,3.41c-1.23,0.85-2.76,1.5-4.5,1.94c-1.76,0.41-3.79,0.62-6.09,0.62
							h-13.64v-37.8h13.02c2.94,0,5.17,0.18,6.73,0.53c2.17,0.5,4.03,1.38,5.55,2.7C369.06,320.11,370.53,322.25,371.53,324.9z"/>
						<path class="st1" d="M301.72,344.36c-1.55-3.03-2.35-6.38-2.35-10.08c0-3.65,0.76-7.09,2.32-10.32
							c1.53-3.17,3.73-5.56,6.64-7.09c2.88-1.53,6.2-2.32,10-2.32c2.7,0,5.17,0.44,7.38,1.35c2.23,0.85,3.97,2.11,5.2,3.67
							c1.27,1.59,2.21,3.68,2.88,6.2l-4.53,1.24c-0.56-1.94-1.3-3.44-2.12-4.56c-0.85-1.09-2.03-2-3.62-2.61
							c-1.56-0.68-3.29-1.03-5.2-1.03c-2.26,0-4.23,0.38-5.91,1.06c-1.68,0.7-3.03,1.62-4.03,2.76c-1.03,1.12-1.82,2.38-2.41,3.73
							c-0.94,2.35-1.44,4.88-1.44,7.61c0,3.38,0.59,6.21,1.73,8.5c1.17,2.26,2.85,3.97,5.09,5.05c2.2,1.12,4.55,1.68,7.05,1.68
							c2.18,0,4.26-0.44,6.35-1.27c2.06-0.85,3.62-1.74,4.67-2.67v-7.11h-11.08v-4.41h15.99v13.99c-2.47,1.97-5,3.44-7.61,4.41
							c-2.62,1-5.29,1.5-8.05,1.5c-3.7,0-7.09-0.79-10.11-2.38C305.54,349.68,303.25,347.38,301.72,344.36z"/>
						<path class="st1" d="M291.88,339.24l-6.61-0.7l-2.71,6.11c-0.35,0.76-1.23,1.12-2,0.76c-0.5-0.18-0.83-0.65-0.88-1.15
							l-1.38-6.44l-6.64-0.68c-0.82-0.12-1.44-0.85-1.35-1.67c0.06-0.53,0.38-0.97,0.82-1.21l5.73-3.27l-1.41-6.55
							c-0.18-0.83,0.35-1.65,1.18-1.79c0.53-0.12,1.06,0.06,1.41,0.44l4.85,4.38l5.79-3.32c0.74-0.41,1.65-0.2,2.06,0.53
							c0.29,0.47,0.29,1,0.06,1.44l-2.7,6.06l4.97,4.44c0.62,0.55,0.68,1.53,0.11,2.14C292.84,339.13,292.38,339.3,291.88,339.24z
							 M284.47,335.42l3.09,0.32l-2.26-2c-0.5-0.41-0.71-1.18-0.41-1.79l1.26-2.85l-2.67,1.56c-0.56,0.32-1.26,0.26-1.76-0.18
							l-2.29-2.09l0.62,3.06c0.15,0.61-0.12,1.29-0.71,1.62l-2.67,1.53l3.03,0.33c0.65,0.06,1.2,0.53,1.35,1.2l0.64,3l1.23-2.83
							C283.18,335.72,283.79,335.36,284.47,335.42z"/>
					</g>
					<g>
						<path class="st2" d="M308.45,385.39c7.17,0,13,5.82,13,12.99c0,7.17-5.82,12.96-13,12.96c-7.14,0-12.96-5.79-12.96-12.96
							C295.49,391.21,301.31,385.39,308.45,385.39z"/>
						<polyline class="st2" points="356.86,305.03 356.86,274.67 317.59,274.67 316.8,274.67 						"/>
						<polyline class="st2" points="320.15,398.38 321.45,398.38 356.86,398.38 356.86,361.73 						"/>
						<path class="st2" d="M304.63,261.7c7.17,0,12.96,5.79,12.96,12.96c0,7.14-5.79,12.96-12.96,12.96
							c-7.17,0-12.96-5.82-12.96-12.96C291.67,267.5,297.46,261.7,304.63,261.7z"/>
						<path class="st2" d="M443.54,385.39c-7.17,0-12.96,5.82-12.96,12.99c0,7.17,5.79,12.96,12.96,12.96
							c7.14,0,12.96-5.79,12.96-12.96C456.5,391.21,450.68,385.39,443.54,385.39z"/>
						<polyline class="st2" points="393.13,304.82 393.13,274.67 432.37,274.67 433.19,274.67 						"/>
						<polyline class="st2" points="429.84,398.38 393.13,398.38 393.13,361.73 						"/>
						<path class="st2" d="M445.36,261.7c-7.17,0-12.99,5.79-12.99,12.96c0,7.14,5.82,12.96,12.99,12.96
							c7.17,0,12.96-5.82,12.96-12.96C458.32,267.5,452.53,261.7,445.36,261.7z"/>
						<polyline class="st2" points="373.94,361.73 373.94,427.3 373.94,428.21 						"/>
						<polyline class="st2" points="373.94,244.45 373.94,244.92 373.94,304.65 						"/>
						<path class="st2" d="M373.94,219c7.17,0,12.96,5.79,12.96,12.96c0,7.17-5.79,12.97-12.96,12.97
							c-7.14,0-12.96-5.79-12.96-12.97C360.98,224.79,366.8,219,373.94,219z"/>
						<path class="st2" d="M373.94,427.3c7.17,0,12.96,5.82,12.96,12.96c0,7.17-5.79,12.96-12.96,12.96
							c-7.14,0-12.96-5.79-12.96-12.96C360.98,433.12,366.8,427.3,373.94,427.3z"/>
						<line class="st2" x1="261.72" y1="305.15" x2="486.16" y2="305.15"/>
						<line class="st2" x1="261.72" y1="361.64" x2="486.16" y2="361.64"/>
					</g>
				</g>
			</g>
		</g>
	</g>
</g>
<g id="Layer_1">
</g>
</svg>
