<?xml version="1.0" encoding="utf-8"?>
<!-- Generator: Adobe Illustrator 24.1.0, SVG Export Plug-In . SVG Version: 6.00 Build 0)  -->
<svg version="1.1" id="Capa_1" xmlns="http://www.w3.org/2000/svg" xmlns:xlink="http://www.w3.org/1999/xlink" x="0px" y="0px"
	 viewBox="0 0 613.2 490.2" style="enable-background:new 0 0 613.2 490.2;" xml:space="preserve">
<style type="text/css">
	.st0{fill:#375A64;}
	.st1{fill:#FFFFFF;}
	.st2{fill:#FF4F5B;}
	.st3{enable-background:new    ;}
	.st4{fill:#E9E9E4;}
	.st5{font-family:'ArialMT';}
	.st6{font-size:21.7425px;}
</style>
<g>
	<g>
		<g>
			<g>
				<path class="st0" d="M357.7,426.7l-127.7-0.6c-15.4-0.1-27.8-12.6-27.7-27.9l1.4-320.3c0.1-15.4,12.6-27.8,28-27.7l127.7,0.6
					c15.4,0.1,27.8,12.6,27.7,27.9L385.6,399C385.6,414.4,373,426.8,357.7,426.7z"/>
			</g>
			<g>
				<path class="st1" d="M359.1,61.8l-24.8-0.1c-3.3,0-6,2.8-6,6.3l0,4.5c0,3.5-2.7,6.3-6,6.3l-48.3-0.2c-3.3,0-6-2.8-6-6.3l0-4.5
					c0-3.5-2.7-6.3-6-6.3l-8.7,0l-21.7-0.1c-10.8-0.1-19.5,8.6-19.6,19.4l-1.3,312.6c-0.1,10.8,8.6,19.5,19.4,19.6l127.5,0.6
					c10.8,0.1,19.5-8.6,19.6-19.4l1.3-312.6C378.5,70.7,369.9,61.9,359.1,61.8z"/>
			</g>
			<g>
				<g>
					<g>
						<g>
							<path class="st2" d="M358.5,370l-129.8-0.8c-1.3,0-2.4-2.2-2.4-4.9l0.2-51.1c0-2.7,1.1-4.9,2.4-4.9l129.8,0.8
								c1.3,0,2.4,2.2,2.4,4.9l-0.2,51.1C360.9,367.8,359.8,370,358.5,370z"/>
						</g>
						<g>
							<text transform="matrix(0.8654 4.016640e-03 -4.247983e-03 1 252.836 330.9755)" class="st3"><tspan x="0" y="0" class="st4 st5 st6">Servicio </tspan><tspan x="0" y="26.1" class="st4 st5 st6">confirmado</tspan></text>
						</g>
					</g>
				</g>
			</g>
		</g>
	</g>
	
		<image style="overflow:visible;enable-background:new    ;" width="207" height="155" xlink:href="8C0C1F07.png"  transform="matrix(0.6262 0 0 0.6262 230.377 138.626)">
	</image>
</g>
</svg>
