<?xml version="1.0" encoding="utf-8"?>
<!-- Generator: Adobe Illustrator 24.0.2, SVG Export Plug-In . SVG Version: 6.00 Build 0)  -->
<svg version="1.1" id="Capa_1" xmlns="http://www.w3.org/2000/svg" xmlns:xlink="http://www.w3.org/1999/xlink" x="0px" y="0px"
	 viewBox="0 0 841.89 595.28" style="enable-background:new 0 0 841.89 595.28;" xml:space="preserve">
<style type="text/css">
	.st0{fill:#375A64;}
	.st1{fill:#FFFFFF;}
	.st2{fill:#FF4F5B;}
	.st3{fill:#E9E9E4;}
	.st4{font-family:'Montserrat-Regular';}
	.st5{font-size:17px;}
	.st6{opacity:0.1;}
	.st7{fill:#E1E1E1;}
	.st8{opacity:0.2;fill:#FFFFFF;}
	.st9{opacity:0.2;}
</style>
<g>
	<g>
		<g>
			<path class="st0" d="M470.42,445.04l-99.88-0.46c-12.01-0.05-21.71-9.84-21.66-21.85l1.06-250.4
				c0.05-12.02,9.84-21.72,21.86-21.67l99.88,0.46c12.01,0.06,21.71,9.84,21.66,21.85l-1.06,250.4
				C492.23,435.4,482.44,445.1,470.42,445.04z"/>
		</g>
		<g>
			<path class="st1" d="M471.54,159.76l-19.37-0.09c-2.6-0.01-4.71,2.18-4.72,4.89l-0.02,3.51c-0.01,2.71-2.13,4.91-4.72,4.89
				l-37.75-0.17c-2.6-0.01-4.69-2.22-4.68-4.94l0.02-3.51c0.01-2.71-2.08-4.93-4.68-4.94l-6.81-0.03l-16.95-0.08
				c-8.42-0.04-15.27,6.76-15.31,15.17l-1.03,244.41c-0.04,8.41,6.75,15.26,15.17,15.3l99.68,0.46c8.42,0.04,15.27-6.75,15.31-15.17
				l1.03-244.41C486.74,166.65,479.95,159.8,471.54,159.76z"/>
		</g>
		<g>
			<g>
				<g>
					<g>
						<path class="st2" d="M472.43,411.57l-101.51-0.47c-1.05-0.01-1.9-1.27-1.89-2.82l0.12-29.36c0.01-1.56,0.86-2.81,1.91-2.81
							l101.51,0.47c1.05,0.01,1.9,1.27,1.89,2.82l-0.12,29.35C474.34,410.31,473.48,411.57,472.43,411.57z"/>
					</g>
					<g>
						<text transform="matrix(0.8654 4.016677e-03 -4.248021e-03 1 398.8755 398.6482)" class="st3 st4 st5">Aceptar</text>
					</g>
				</g>
			</g>
		</g>
	</g>
</g>
<g>
	<g>
		
			<rect x="370.02" y="228.29" transform="matrix(1 4.615699e-03 -4.615699e-03 1 1.0687 -1.7648)" class="st2" width="25.72" height="4.72"/>
		
			<rect x="370.02" y="228.29" transform="matrix(1 4.615699e-03 -4.615699e-03 1 1.0687 -1.7648)" class="st6" width="25.72" height="4.72"/>
	</g>
	<g>
		<g>
			<path class="st7" d="M471.17,257.31c0-0.02,0.21,0.01,0.59-0.14c0.35-0.14,0.91-0.56,0.97-1.35c0-1.59-0.01-3.91-0.01-6.89
				c0-1.5,0-3.16,0-4.98c0-0.46,0-0.92,0-1.39c0.01-0.49,0.01-0.94-0.28-1.31c-0.26-0.37-0.71-0.61-1.18-0.61c-0.51,0-1.04,0-1.57,0
				c-4.25-0.01-9.1-0.02-14.44-0.03c-21.42-0.08-50.99-0.19-83.64-0.31c-0.43,0-0.85,0.21-1.1,0.56c-0.28,0.35-0.27,0.77-0.26,1.31
				c0,1.01-0.01,2.03-0.01,3.03c-0.01,2.02-0.02,4.02-0.03,6.01c0,0.99-0.01,1.99-0.01,2.97c0.02,0.47-0.05,1.04,0.04,1.41
				c0.1,0.4,0.4,0.74,0.78,0.9c0.2,0.08,0.38,0.11,0.62,0.11l0.73,0l1.46,0.01c0.97,0,1.94,0.01,2.9,0.01
				c7.7,0.04,15.13,0.08,22.21,0.12c14.15,0.09,26.89,0.16,37.6,0.23c10.69,0.08,19.35,0.15,25.35,0.2c2.98,0.03,5.3,0.06,6.89,0.08
				c0.77,0.01,1.37,0.03,1.79,0.03C470.96,257.29,471.17,257.31,471.17,257.31s-0.21,0.02-0.61,0.02c-0.42,0-1.02,0.01-1.79,0.02
				c-1.6,0-3.91,0.01-6.89,0.02c-6-0.01-14.66-0.02-25.35-0.03c-10.71-0.03-23.45-0.07-37.6-0.12c-7.08-0.03-14.51-0.06-22.21-0.09
				c-0.96,0-1.93-0.01-2.9-0.01l-1.46-0.01l-0.73,0c-0.25,0.01-0.56-0.03-0.82-0.15c-0.52-0.22-0.94-0.69-1.08-1.24
				c-0.08-0.28-0.06-0.57-0.06-0.8l0-0.74c0-0.99,0.01-1.98,0.01-2.97c0.01-1.99,0.02-3.99,0.02-6.01c0-1.01,0.01-2.02,0.01-3.03
				c0.01-0.26-0.01-0.49,0.03-0.8c0.04-0.29,0.16-0.57,0.33-0.81c0.34-0.48,0.93-0.78,1.52-0.77c32.65,0.18,62.22,0.34,83.64,0.46
				c5.35,0.04,10.19,0.07,14.45,0.11c0.53,0,1.05,0.01,1.57,0.01c0.56,0.01,1.09,0.29,1.4,0.73c0.34,0.43,0.34,1.02,0.32,1.47
				c0,0.47-0.01,0.94-0.01,1.4c-0.02,1.82-0.03,3.48-0.04,4.98c-0.04,2.98-0.07,5.3-0.08,6.9c-0.09,0.83-0.69,1.26-1.05,1.39
				C471.38,257.36,471.17,257.31,471.17,257.31z"/>
		</g>
	</g>
	<g>
		
			<rect x="376.92" y="246.49" transform="matrix(1 4.619129e-03 -4.619129e-03 1 1.153 -1.8471)" class="st2" width="47.04" height="4.41"/>
		
			<rect x="376.92" y="246.49" transform="matrix(1 4.619129e-03 -4.619129e-03 1 1.153 -1.8471)" class="st8" width="47.04" height="4.41"/>
	</g>
	<g>
		
			<rect x="369.84" y="271.36" transform="matrix(1 4.615683e-03 -4.615683e-03 1 1.2675 -1.7635)" class="st2" width="25.72" height="4.72"/>
		
			<rect x="369.84" y="271.36" transform="matrix(1 4.615683e-03 -4.615683e-03 1 1.2675 -1.7635)" class="st6" width="25.72" height="4.72"/>
	</g>
	<g>
		<g>
			<path class="st7" d="M470.51,300.37c0-0.02,0.21,0,0.59-0.11c0.36-0.12,0.95-0.42,1.27-1.13c0.17-0.35,0.19-0.78,0.17-1.27
				c0-0.49,0-1.02-0.01-1.59c0-1.15,0-2.48-0.01-3.96c0-1.49,0-3.15,0-4.96c0-0.45,0-0.92,0-1.39c0.02-0.48-0.04-0.92-0.29-1.32
				c-0.24-0.39-0.63-0.7-1.09-0.84c-0.45-0.14-0.98-0.06-1.51-0.09c-4.24-0.01-9.06-0.02-14.4-0.03
				c-21.35-0.08-50.81-0.19-83.35-0.31c-0.9-0.02-1.74,0.72-1.83,1.61c-0.03,0.95-0.02,2-0.03,2.99c-0.01,2.01-0.02,4.01-0.03,5.99
				c0,0.99-0.01,1.98-0.01,2.96c0.02,0.49-0.05,1,0.06,1.4c0.11,0.41,0.38,0.78,0.73,1.03c0.37,0.25,0.76,0.34,1.24,0.32l1.45,0.01
				c0.97,0,1.93,0.01,2.89,0.01c7.67,0.04,15.08,0.08,22.13,0.12c14.1,0.09,26.8,0.16,37.47,0.23c10.65,0.08,19.28,0.15,25.26,0.2
				c2.97,0.04,5.28,0.06,6.87,0.08c0.77,0.02,1.36,0.03,1.79,0.03C470.3,300.35,470.51,300.37,470.51,300.37s-0.21,0.02-0.61,0.02
				c-0.42,0-1.01,0.01-1.79,0.02c-1.59,0-3.9,0.01-6.87,0.02c-5.98-0.01-14.61-0.02-25.26-0.03c-10.67-0.03-23.37-0.07-37.47-0.12
				c-7.05-0.03-14.46-0.06-22.13-0.09c-0.96,0-1.92-0.01-2.89-0.01l-1.45-0.01c-0.49,0.03-1.09-0.09-1.53-0.41
				c-0.45-0.31-0.79-0.78-0.94-1.31c-0.15-0.56-0.06-1.05-0.08-1.53c0-0.98,0.01-1.97,0.01-2.96c0.01-1.98,0.02-3.98,0.02-5.99
				c0.01-1.02-0.01-1.98,0.03-3.05c0.11-1.15,1.18-2.1,2.35-2.07c32.54,0.18,62,0.34,83.35,0.46c5.33,0.04,10.15,0.07,14.39,0.11
				c0.52,0.03,1.05-0.06,1.59,0.11c0.52,0.16,0.96,0.52,1.23,0.97c0.29,0.44,0.35,1,0.32,1.46c0,0.47-0.01,0.94-0.01,1.39
				c-0.02,1.81-0.03,3.47-0.04,4.96c-0.02,1.49-0.03,2.81-0.04,3.96c-0.01,0.57-0.01,1.1-0.02,1.59c0.01,0.48-0.02,0.95-0.21,1.31
				c-0.35,0.74-0.97,1.04-1.35,1.14C470.72,300.41,470.51,300.37,470.51,300.37z"/>
		</g>
	</g>
	<g>
		
			<rect x="369.65" y="316.27" transform="matrix(1 4.596258e-03 -4.596258e-03 1 1.4685 -1.7547)" class="st2" width="25.72" height="4.72"/>
		
			<rect x="369.65" y="316.27" transform="matrix(1 4.596258e-03 -4.596258e-03 1 1.4685 -1.7547)" class="st6" width="25.72" height="4.72"/>
	</g>
	<g>
		<g>
			<path class="st7" d="M470.32,345.28c0-0.02,0.21,0,0.59-0.11c0.36-0.12,0.95-0.42,1.27-1.13c0.17-0.35,0.19-0.78,0.17-1.27
				c0-0.49,0-1.02-0.01-1.59c0-1.15,0-2.48-0.01-3.96c0-1.49,0-3.15,0-4.96c0-0.45,0-0.92,0-1.39c0.02-0.48-0.04-0.92-0.29-1.32
				c-0.24-0.39-0.63-0.7-1.09-0.84c-0.45-0.14-0.98-0.06-1.51-0.09c-4.24-0.01-9.06-0.02-14.39-0.03
				c-21.35-0.08-50.81-0.19-83.35-0.31c-0.9-0.02-1.74,0.71-1.83,1.61c-0.03,0.95-0.02,2-0.03,2.99c-0.01,2.01-0.02,4.01-0.03,5.99
				c0,0.99-0.01,1.98-0.01,2.96c0.02,0.49-0.05,1,0.06,1.4c0.11,0.41,0.38,0.78,0.73,1.03c0.37,0.25,0.76,0.34,1.24,0.32l1.45,0.01
				c0.97,0,1.93,0.01,2.89,0.01c7.67,0.04,15.08,0.08,22.13,0.12c14.1,0.09,26.8,0.16,37.47,0.23c10.65,0.08,19.28,0.15,25.26,0.2
				c2.97,0.04,5.28,0.06,6.87,0.08c0.77,0.01,1.37,0.03,1.79,0.03C470.11,345.26,470.32,345.28,470.32,345.28s-0.21,0.02-0.61,0.02
				c-0.42,0-1.01,0.01-1.79,0.02c-1.59,0-3.9,0.01-6.87,0.02c-5.98-0.01-14.61-0.02-25.26-0.03c-10.67-0.03-23.37-0.07-37.47-0.12
				c-7.05-0.03-14.46-0.06-22.13-0.09c-0.96,0-1.92-0.01-2.89-0.01l-1.45-0.01c-0.49,0.03-1.09-0.09-1.53-0.41
				c-0.45-0.31-0.79-0.78-0.94-1.31c-0.15-0.56-0.06-1.05-0.08-1.54c0-0.98,0.01-1.97,0.01-2.96c0.01-1.98,0.02-3.98,0.02-5.99
				c0.01-1.02-0.01-1.98,0.03-3.05c0.11-1.15,1.18-2.1,2.35-2.07c32.54,0.18,62,0.34,83.35,0.46c5.33,0.04,10.15,0.07,14.39,0.11
				c0.52,0.03,1.05-0.06,1.59,0.11c0.52,0.16,0.96,0.52,1.23,0.97c0.29,0.44,0.35,1,0.32,1.46c0,0.47-0.01,0.94-0.01,1.39
				c-0.02,1.81-0.03,3.47-0.04,4.96c-0.02,1.49-0.03,2.81-0.04,3.96c-0.01,0.57-0.01,1.1-0.02,1.59c0.01,0.48-0.02,0.95-0.21,1.31
				c-0.35,0.74-0.97,1.04-1.35,1.14C470.53,345.32,470.32,345.28,470.32,345.28z"/>
		</g>
	</g>
	<g>
		
			<rect x="376.74" y="289.56" transform="matrix(1 4.619090e-03 -4.619090e-03 1 1.3519 -1.8457)" class="st2" width="47.04" height="4.41"/>
		
			<rect x="376.74" y="289.56" transform="matrix(1 4.619090e-03 -4.619090e-03 1 1.3519 -1.8457)" class="st8" width="47.04" height="4.41"/>
	</g>
	<g>
		<g>
			<g>
				<path class="st2" d="M381.02,337.12c-0.01,1.21-0.93,2.19-2.07,2.18c-1.14-0.01-2.05-0.99-2.05-2.2
					c0.01-1.21,0.93-2.19,2.07-2.18C380.11,334.92,381.03,335.91,381.02,337.12z"/>
			</g>
			<g>
				<path class="st2" d="M387.4,337.15c-0.01,1.21-0.93,2.19-2.07,2.18c-1.14,0-2.05-0.99-2.05-2.2c0-1.21,0.93-2.19,2.07-2.18
					C386.49,334.95,387.4,335.94,387.4,337.15z"/>
			</g>
			<g>
				<path class="st2" d="M393.77,337.18c0,1.21-0.93,2.19-2.07,2.18c-1.14,0-2.05-0.99-2.05-2.2c0.01-1.21,0.93-2.19,2.07-2.18
					C392.86,334.98,393.78,335.97,393.77,337.18z"/>
			</g>
			<g>
				<path class="st2" d="M400.14,337.21c0,1.21-0.93,2.19-2.07,2.18c-1.14,0-2.05-0.99-2.05-2.2c0-1.21,0.93-2.19,2.07-2.18
					C399.23,335.01,400.15,336,400.14,337.21z"/>
			</g>
			<g>
				<path class="st2" d="M406.52,337.24c0,1.21-0.93,2.19-2.07,2.18c-1.14,0-2.05-0.99-2.05-2.2c0.01-1.21,0.93-2.19,2.07-2.18
					C405.6,335.04,406.52,336.03,406.52,337.24z"/>
			</g>
			<g>
				<path class="st2" d="M412.89,337.27c0,1.21-0.93,2.19-2.07,2.18c-1.14,0-2.05-0.99-2.05-2.2c0-1.21,0.93-2.19,2.07-2.18
					C411.98,335.07,412.89,336.06,412.89,337.27z"/>
			</g>
			<g>
				<path class="st2" d="M419.26,337.3c-0.01,1.21-0.93,2.19-2.07,2.18c-1.14-0.01-2.05-0.99-2.05-2.2c0-1.21,0.93-2.19,2.07-2.18
					C418.35,335.1,419.27,336.08,419.26,337.3z"/>
			</g>
			<g>
				<path class="st2" d="M425.63,337.32c0,1.21-0.93,2.19-2.07,2.18c-1.14-0.01-2.05-0.99-2.05-2.2c0-1.21,0.93-2.19,2.07-2.18
					C424.72,335.13,425.64,336.11,425.63,337.32z"/>
			</g>
			<g>
				<path class="st2" d="M432.01,337.36c0,1.21-0.93,2.19-2.07,2.18c-1.14,0-2.05-0.99-2.05-2.2c0.01-1.21,0.93-2.19,2.07-2.18
					C431.1,335.16,432.01,336.14,432.01,337.36z"/>
			</g>
		</g>
		<g class="st9">
			<g>
				<path class="st1" d="M381.02,337.12c-0.01,1.21-0.93,2.19-2.07,2.18c-1.14-0.01-2.05-0.99-2.05-2.2
					c0.01-1.21,0.93-2.19,2.07-2.18C380.11,334.92,381.03,335.91,381.02,337.12z"/>
			</g>
			<g>
				<path class="st1" d="M387.4,337.15c-0.01,1.21-0.93,2.19-2.07,2.18c-1.14,0-2.05-0.99-2.05-2.2c0-1.21,0.93-2.19,2.07-2.18
					C386.49,334.95,387.4,335.94,387.4,337.15z"/>
			</g>
			<g>
				<path class="st1" d="M393.77,337.18c0,1.21-0.93,2.19-2.07,2.18c-1.14,0-2.05-0.99-2.05-2.2c0.01-1.21,0.93-2.19,2.07-2.18
					C392.86,334.98,393.78,335.97,393.77,337.18z"/>
			</g>
			<g>
				<path class="st1" d="M400.14,337.21c0,1.21-0.93,2.19-2.07,2.18c-1.14,0-2.05-0.99-2.05-2.2c0-1.21,0.93-2.19,2.07-2.18
					C399.23,335.01,400.15,336,400.14,337.21z"/>
			</g>
			<g>
				<path class="st1" d="M406.52,337.24c0,1.21-0.93,2.19-2.07,2.18c-1.14,0-2.05-0.99-2.05-2.2c0.01-1.21,0.93-2.19,2.07-2.18
					C405.6,335.04,406.52,336.03,406.52,337.24z"/>
			</g>
			<g>
				<path class="st1" d="M412.89,337.27c0,1.21-0.93,2.19-2.07,2.18c-1.14,0-2.05-0.99-2.05-2.2c0-1.21,0.93-2.19,2.07-2.18
					C411.98,335.07,412.89,336.06,412.89,337.27z"/>
			</g>
			<g>
				<path class="st1" d="M419.26,337.3c-0.01,1.21-0.93,2.19-2.07,2.18c-1.14-0.01-2.05-0.99-2.05-2.2c0-1.21,0.93-2.19,2.07-2.18
					C418.35,335.1,419.27,336.08,419.26,337.3z"/>
			</g>
			<g>
				<path class="st1" d="M425.63,337.32c0,1.21-0.93,2.19-2.07,2.18c-1.14-0.01-2.05-0.99-2.05-2.2c0-1.21,0.93-2.19,2.07-2.18
					C424.72,335.13,425.64,336.11,425.63,337.32z"/>
			</g>
			<g>
				<path class="st1" d="M432.01,337.36c0,1.21-0.93,2.19-2.07,2.18c-1.14,0-2.05-0.99-2.05-2.2c0.01-1.21,0.93-2.19,2.07-2.18
					C431.1,335.16,432.01,336.14,432.01,337.36z"/>
			</g>
		</g>
	</g>
	<g>
		<g>
			<path class="st2" d="M422.96,192.99c1.35-0.56,2.3-1.95,2.31-3.59c0.01-2.14-1.61-3.89-3.62-3.9c-2.01-0.01-3.64,1.72-3.65,3.86
				c-0.01,1.65,0.96,3.05,2.32,3.62c-5.6,0.84-5.34,6.93-5.34,6.93l13.23,0.06C428.2,199.98,428.5,193.83,422.96,192.99z"/>
			<path class="st6" d="M422.96,192.99c1.35-0.56,2.3-1.95,2.31-3.59c0.01-2.14-1.61-3.89-3.62-3.9c-2.01-0.01-3.64,1.72-3.65,3.86
				c-0.01,1.65,0.96,3.05,2.32,3.62c-5.6,0.84-5.34,6.93-5.34,6.93l13.23,0.06C428.2,199.98,428.5,193.83,422.96,192.99z"/>
		</g>
		<g>
			
				<rect x="397.26" y="203.85" transform="matrix(1 4.615101e-03 -4.615101e-03 1 0.9583 -1.9401)" class="st2" width="47.19" height="5.64"/>
			
				<rect x="397.26" y="203.85" transform="matrix(1 4.615101e-03 -4.615101e-03 1 0.9583 -1.9401)" class="st8" width="47.19" height="5.64"/>
		</g>
	</g>
</g>
</svg>
