<?xml version="1.0" encoding="utf-8"?>
<!-- Generator: Adobe Illustrator 24.0.2, SVG Export Plug-In . SVG Version: 6.00 Build 0)  -->
<svg version="1.1" id="Capa_1" xmlns="http://www.w3.org/2000/svg" xmlns:xlink="http://www.w3.org/1999/xlink" x="0px" y="0px"
	 viewBox="0 0 609.3 430.8" style="enable-background:new 0 0 609.3 430.8;" xml:space="preserve">
<style type="text/css">
	.st0{fill:#303030;}
	.st1{fill:#C0C0C0;}
	.st2{fill:#909090;}
	.st3{fill:#4C8EB5;}
	.st4{fill:#E0E0E0;}
	.st5{fill:#F3AA43;}
	.st6{fill:#EF893A;}
	.st7{fill:#A0A0A0;}
</style>
<g>
	<g>
		<g>
			<g>
				<path class="st0" d="M403.9,182.6v92.8c0,0.3-0.1,0.6-0.2,0.8c-0.3,1-1.2,1.6-2.3,1.6H231c-1.1,0-2-0.7-2.3-1.6
					c-0.1-0.2-0.2-0.5-0.2-0.8v-92.8c0-1.4,1.1-2.5,2.5-2.5h170.5C402.8,180.2,403.9,181.3,403.9,182.6z"/>
			</g>
		</g>
		<g>
			<g>
				<path class="st1" d="M414.9,278.5c0,2.4-1.9,4.3-4.3,4.3H221.9c-2.4,0-4.3-1.9-4.3-4.3c0-0.9,0.2-1.6,0.7-2.3h196
					C414.6,276.9,414.9,277.7,414.9,278.5z"/>
			</g>
		</g>
		<g>
			<g>
				<path class="st2" d="M304.8,276.2c0.9,1.9,2.9,3.3,5.2,3.3h12.4c2.3,0,4.3-1.4,5.2-3.3H304.8z"/>
			</g>
		</g>
		<g>
			<g>
				<rect x="234.3" y="184" class="st3" width="163.5" height="85.7"/>
			</g>
		</g>
		<g>
			<path class="st4" d="M414.9,278.5c0,2.4-1.9,4.3-4.3,4.3H283.1l2.9-4.9l0.9-1.6l3.8-6.6l4.3-7.4l19.8-34.3l2.7-4.7l0.1-0.1l2.3-4
				l14-24.2l4.3-7.4l1.7-2.9l0.3-0.5l2.2-3.8h59c1.4,0,2.5,1.1,2.5,2.5v92.8c0,0.3-0.1,0.6-0.2,0.8h10.4
				C414.6,276.9,414.9,277.7,414.9,278.5z"/>
		</g>
	</g>
	<g>
		<g>
			<g>
				<polygon class="st1" points="304.5,135.6 303.1,145.5 303.1,240.9 297.8,240.9 297.8,145.5 296.3,135.6 297.3,127 303.6,127 
									"/>
			</g>
			<g>
				<path class="st5" d="M307.3,194.9v60c0,3.8-3.1,6.9-6.9,6.9c-3.8,0-6.9-3.1-6.9-6.9v-60c0-2.8,1.7-5.2,4.1-6.3
					c0,0,0.1-0.1,0.2-0.1c0.8-0.4,1.7-0.6,2.7-0.6s1.9,0.2,2.7,0.6c0.1,0,0.1,0,0.1,0.1c0.8,0.3,1.5,0.8,2.1,1.4
					C306.6,191.3,307.3,193,307.3,194.9z"/>
			</g>
			<g>
				<path class="st6" d="M303.3,188v68.2c0,1.6-1.3,2.9-2.8,2.9c-1.5,0-2.8-1.3-2.8-2.9V188H303.3z"/>
			</g>
		</g>
		<g>
			<path class="st4" d="M300.4,127v134.8c-3.8,0-6.9-3.1-6.9-6.9v-60c0-2.8,1.7-5.2,4.1-6.3V188h0.2v-42.5l-1.4-9.9l1-8.6H300.4z"/>
		</g>
	</g>
	<g>
		<g>
			<path class="st7" d="M332.6,144.6c1.3-1.5,2.4-3.2,3.1-4.9c0.5-1.3,0.8-2.5,0.8-3.7c0-1.7-0.6-3.4-1.9-4.7
				c-3.1-3.1-6.1-5.6-10-5.9c-0.7-0.1-1.5-0.1-2.3,0l5.5,10.3l-2.1,2.5l-2,2.4l-4.4,0.5l-1.9,0.2l-3.5-10.3h-2
				c-2,2.3-2.7,4.9-2.7,7.6c0,1.8,0.3,3.8,0.7,5.9c0.8,4.2,5.3,6.1,10.2,5.9c0.2,0.4,0.3,0.8,0.4,1.1v95.8c-1.7,1.4-2.7,3.5-2.7,5.9
				c0,4.3,3.5,7.8,7.8,7.8c0.3,0,0.7,0,1-0.1c0.2,0,0.3-0.1,0.5-0.1c2.8-0.6,5.1-2.6,5.9-5.3c0,0,0,0,0-0.1c0.2-0.7,0.3-1.4,0.3-2.2
				v-0.1c0-0.8-0.1-1.5-0.3-2.2c0,0,0,0,0,0c-0.4-1.4-1.3-2.7-2.4-3.6V153C330.6,149.8,331.5,146.9,332.6,144.6z M327.7,258.5
				l-0.1-0.2c-0.2-0.2-0.4-0.4-0.6-0.4c-0.2-0.1-0.3-0.1-0.5,0c-0.5,0-0.9,0.4-1,0.9l0,0.3l-0.1-0.3c0-0.1-0.1-0.2-0.1-0.2
				c0,0,0,0,0-0.1c-0.3-0.7-1.4-0.9-1.9-0.1l-0.2,0.3l0.1-0.3c0.2-1-0.9-1.7-1.7-1.1l-0.3,0.2l0.2-0.3c0.6-0.8-0.2-1.9-1.2-1.7
				l-0.2,0l-0.1,0l0.1-0.1l0.2-0.1c0.9-0.6,0.6-1.8-0.4-2l-0.2,0l-0.2,0l0.2,0l0.2,0c1-0.2,1.2-1.5,0.4-2l-0.2-0.1l-0.1-0.1l0.1,0
				l0.2,0c1,0.2,1.7-0.9,1.2-1.7l-0.2-0.3l0.3,0.2c0.8,0.6,1.9-0.2,1.7-1.1l-0.1-0.3l0.2,0.3c0.5,0.8,1.5,0.6,1.9-0.1
				c0,0,0-0.1,0-0.1c0.1-0.1,0.1-0.1,0.1-0.2l0.1-0.2h0.1v0.2c0.1,0.5,0.5,0.9,1,0.9c0.2,0,0.3,0,0.5,0c0.2-0.1,0.4-0.2,0.6-0.5
				l0.1-0.2l0.1-0.1l-0.1,0.2l0,0.1c-0.2,1,0.9,1.7,1.7,1.1l0.3-0.2l-0.2,0.3c-0.6,0.8,0.2,1.9,1.2,1.7l0.3-0.1l-0.3,0.2
				c-0.8,0.6-0.6,1.8,0.4,2l0.4,0.1l-0.4,0.1c-1,0.2-1.2,1.5-0.4,2l0.3,0.2l-0.3-0.1c-1-0.2-1.7,0.9-1.2,1.7l0.2,0.3l-0.3-0.2
				c-0.8-0.6-1.9,0.2-1.7,1.1V258.5l0.1,0.2L327.7,258.5z"/>
		</g>
		<g>
			<path class="st1" d="M334.7,144.6c1.3-1.5,2.4-3.2,3.1-4.9c0.5-1.3,0.8-2.5,0.8-3.7c0-1.7-0.6-3.4-1.9-4.7
				c-3.6-3.7-7.1-6.4-12-5.9c-0.1,0-0.2,0-0.2,0l5.5,10.3l-2.8,3.4l-1.3,1.5l-6.4,0.7l-0.1-0.2l-5.4-10.1c-3.3,3.9-2.9,8.3-1.9,13.5
				c0.8,4.2,5.3,6.1,10.2,5.9c0.2,0.4,0.3,0.8,0.4,1.1v95.8c-1.1,0.9-2,2.2-2.4,3.6v0c-0.2,0.7-0.3,1.4-0.3,2.2v0.1
				c0,0.8,0.1,1.5,0.3,2.2c0,0,0,0,0,0c0.8,2.9,3.3,5.1,6.4,5.5c0.2,0,0.3,0,0.5,0c0.2,0,0.3,0,0.5,0c4.3,0,7.8-3.5,7.8-7.8
				c0-2.4-1.1-4.4-2.7-5.9V153C332.6,149.8,333.6,146.9,334.7,144.6z M333,250.9L333,250.9l-0.3,0.2c-0.9,0.6-0.6,1.8,0.4,2l0.1,0
				l0.2,0l-0.2,0l-0.1,0c-1,0.2-1.3,1.5-0.4,2l0.2,0.1l0.1,0.1h-0.1l-0.2-0.1c-1-0.2-1.7,0.9-1.1,1.7l0.2,0.3l-0.3-0.2
				c-0.8-0.6-1.9,0.2-1.7,1.1l0.1,0.3l-0.2-0.3c-0.5-0.7-1.5-0.6-1.9,0.1c0,0,0,0,0,0.1c0,0.1-0.1,0.2-0.1,0.3l-0.1,0.3l-0.1-0.3
				c-0.1-0.3-0.2-0.6-0.5-0.7c-0.2-0.1-0.3-0.2-0.5-0.2c-0.4-0.1-0.8,0.1-1.1,0.5l-0.1,0.2l-0.1,0.1l0-0.2l0-0.2
				c0.2-1-0.9-1.7-1.7-1.1l-0.3,0.2l0.2-0.3c0.6-0.8-0.2-1.9-1.1-1.7l-0.3,0.1l0.3-0.2c0.9-0.6,0.6-1.8-0.4-2l-0.3-0.1l0.3-0.1
				c1-0.2,1.3-1.5,0.4-2l-0.3-0.2l0.3,0.1c1,0.2,1.7-0.9,1.1-1.7l-0.2-0.3l0.3,0.2c0.8,0.6,1.9-0.2,1.7-1.1l0-0.2l0-0.2l0.1,0.1
				l0.1,0.2c0.2,0.4,0.7,0.6,1.1,0.5c0.2,0,0.3-0.1,0.5-0.2c0.2-0.2,0.4-0.4,0.5-0.7l0-0.2h0.1l0,0.2c0,0.1,0.1,0.2,0.1,0.2
				c0,0,0,0.1,0,0.1c0.4,0.7,1.4,0.8,1.9,0.1l0.2-0.3l-0.1,0.3c-0.2,1,0.9,1.7,1.7,1.1l0.3-0.2l-0.2,0.3c-0.6,0.8,0.2,1.9,1.1,1.7
				L333,250.9L333,250.9z"/>
		</g>
		<g>
			<path class="st4" d="M327,139.2v109.3c-0.2,0.1-0.3,0.1-0.5,0c-0.4,0.1-0.8-0.1-1.1-0.5l-0.1-0.2c0,0,0,0.1,0,0.1l0,0.2
				c0.2,1-0.9,1.7-1.7,1.1l-0.3-0.2l0.2,0.3c0.6,0.8-0.2,1.9-1.1,1.7l-0.3-0.1l0.3,0.2c0.9,0.6,0.6,1.8-0.4,2l-0.3,0.1l0.3,0.1
				c1,0.2,1.3,1.5,0.4,2l-0.3,0.2l0.3-0.1c1-0.2,1.7,0.9,1.1,1.7l-0.2,0.3l0.3-0.2c0.8-0.6,1.9,0.2,1.7,1.1l0,0.2c0,0,0,0,0,0.1
				l0.1-0.2c0.2-0.4,0.7-0.5,1.1-0.5c0.2,0,0.3,0,0.5,0v3c-0.2,0-0.3,0-0.5,0c-0.3,0-0.7,0.1-1,0.1c-4.3,0-7.8-3.5-7.8-7.8
				c0-2.4,1.1-4.4,2.7-5.9v-95.8c-0.1-0.3-0.2-0.7-0.4-1.1c-4.9,0.2-9.4-1.7-10.2-5.9c-0.4-2.1-0.7-4-0.7-5.9c0-2.8,0.7-5.3,2.7-7.6
				h2l5.4,10.1l4.4-0.5l2-2.4L327,139.2z"/>
		</g>
	</g>
</g>
</svg>
