<?xml version="1.0" encoding="utf-8"?>
<!-- Generator: Adobe Illustrator 24.0.2, SVG Export Plug-In . SVG Version: 6.00 Build 0)  -->
<svg version="1.1" id="Capa_1" xmlns="http://www.w3.org/2000/svg" xmlns:xlink="http://www.w3.org/1999/xlink" x="0px" y="0px"
	 viewBox="0 0 613.2 490.2" style="enable-background:new 0 0 613.2 490.2;" xml:space="preserve">
<style type="text/css">
	.st0{fill:#375A64;}
	.st1{fill:#FFFFFF;}
	.st2{fill:#FF4F5B;}
	.st3{fill:#E9E9E4;}
	.st4{font-family:'MontserratSubrayada-Bold';}
	.st5{font-size:21.5274px;}
	.st6{opacity:0.1;enable-background:new    ;}
	.st7{fill:#E1E1E1;}
	.st8{opacity:0.2;fill:#FFFFFF;enable-background:new    ;}
	.st9{opacity:0.2;}
</style>
<g>
	<g>
		<g>
			<path class="st0" d="M368,425.1l-126.5-0.6c-15.2-0.1-27.5-12.5-27.4-27.7l1.3-317.1c0.1-15.2,12.5-27.5,27.7-27.4l126.5,0.6
				c15.2,0.1,27.5,12.5,27.4,27.7l-1.3,317.1C395.7,412.9,383.3,425.2,368,425.1z"/>
		</g>
		<g>
			<path class="st1" d="M369.5,63.9l-24.5-0.1c-3.3,0-6,2.8-6,6.2l0,4.4c0,3.4-2.7,6.2-6,6.2l-47.8-0.2c-3.3,0-5.9-2.8-5.9-6.3
				l0-4.4c0-3.4-2.6-6.2-5.9-6.3l-8.6,0l-21.5-0.1c-10.7-0.1-19.3,8.6-19.4,19.2L222.5,392c-0.1,10.6,8.5,19.3,19.2,19.4l126.2,0.6
				c10.7,0.1,19.3-8.5,19.4-19.2l1.3-309.5C388.7,72.6,380.1,63.9,369.5,63.9z"/>
		</g>
		<g>
			<g>
				<g>
					<g>
						<path class="st2" d="M368.7,384.7l-128.5-0.6c-1.3,0-2.4-1.6-2.4-3.6l0.2-37.2c0-2,1.1-3.6,2.4-3.6l128.5,0.6
							c1.3,0,2.4,1.6,2.4,3.6l-0.2,37.2C371.1,383.1,370,384.7,368.7,384.7z"/>
					</g>
					<g>
						<text transform="matrix(0.8654 4.016639e-03 -4.247983e-03 1 257.1141 371.202)" class="st3 st4 st5">Aceptar</text>
					</g>
				</g>
			</g>
		</g>
	</g>
</g>
<g>
	<g>
		
			<rect x="254.2" y="137.3" transform="matrix(4.615650e-03 -1 1 4.615650e-03 102.3833 410.1091)" class="st2" width="6" height="32.6"/>
		
			<rect x="254.2" y="137.3" transform="matrix(4.615650e-03 -1 1 4.615650e-03 102.3833 410.1091)" class="st6" width="6" height="32.6"/>
	</g>
	<g>
		<g>
			<path class="st7" d="M369,187.4c0,0,0.3,0,0.7-0.2c0.4-0.2,1.2-0.7,1.2-1.7c0-2,0-5,0-8.7c0-1.9,0-4,0-6.3c0-0.6,0-1.2,0-1.8
				c0-0.6,0-1.2-0.4-1.7c-0.3-0.5-0.9-0.8-1.5-0.8c-0.6,0-1.3,0-2,0c-5.4,0-11.5,0-18.3,0c-27.1-0.1-64.6-0.2-105.9-0.4
				c-0.5,0-1.1,0.3-1.4,0.7c-0.4,0.4-0.3,1-0.3,1.7c0,1.3,0,2.6,0,3.8c0,2.6,0,5.1,0,7.6c0,1.3,0,2.5,0,3.8c0,0.6-0.1,1.3,0.1,1.8
				c0.1,0.5,0.5,0.9,1,1.1c0.3,0.1,0.5,0.1,0.8,0.1h0.9l1.8,0c1.2,0,2.5,0,3.7,0c9.8,0.1,19.2,0.1,28.1,0.2
				c17.9,0.1,34.1,0.2,47.6,0.3c13.5,0.1,24.5,0.2,32.1,0.3c3.8,0,6.7,0.1,8.7,0.1c1,0,1.7,0,2.3,0C368.7,187.4,369,187.4,369,187.4
				s-0.3,0-0.8,0c-0.5,0-1.3,0-2.3,0c-2,0-5,0-8.7,0c-7.6,0-18.6,0-32.1,0c-13.6,0-29.7-0.1-47.6-0.2c-9,0-18.4-0.1-28.1-0.1
				c-1.2,0-2.4,0-3.7,0l-1.8,0h-0.9c-0.3,0-0.7,0-1-0.2c-0.7-0.3-1.2-0.9-1.4-1.6c-0.1-0.4-0.1-0.7-0.1-1v-0.9c0-1.3,0-2.5,0-3.8
				c0-2.5,0-5.1,0-7.6c0-1.3,0-2.6,0-3.8c0-0.3,0-0.6,0-1c0.1-0.4,0.2-0.7,0.4-1c0.4-0.6,1.2-1,1.9-1c41.3,0.2,78.8,0.4,105.9,0.6
				c6.8,0.1,12.9,0.1,18.3,0.1c0.7,0,1.3,0,2,0c0.7,0,1.4,0.4,1.8,0.9c0.4,0.5,0.4,1.3,0.4,1.9c0,0.6,0,1.2,0,1.8
				c0,2.3,0,4.4-0.1,6.3c-0.1,3.8-0.1,6.7-0.1,8.7c-0.1,1.1-0.9,1.6-1.3,1.8C369.3,187.4,369,187.4,369,187.4z"/>
		</g>
	</g>
	<g>
		
			<rect x="276.6" y="146.7" transform="matrix(4.619080e-03 -1 1 4.619080e-03 101.6658 455.09)" class="st2" width="5.6" height="59.6"/>
		
			<rect x="276.6" y="146.7" transform="matrix(4.619080e-03 -1 1 4.619080e-03 101.6658 455.09)" class="st8" width="5.6" height="59.6"/>
	</g>
	<g>
		
			<rect x="254" y="191.9" transform="matrix(4.615634e-03 -1 1 4.615634e-03 47.6167 464.1698)" class="st2" width="6" height="32.6"/>
		
			<rect x="254" y="191.9" transform="matrix(4.615634e-03 -1 1 4.615634e-03 47.6167 464.1698)" class="st6" width="6" height="32.6"/>
	</g>
	<g>
		<g>
			<path class="st7" d="M368.2,241.9c0,0,0.3,0,0.7-0.1c0.5-0.2,1.2-0.5,1.6-1.4c0.2-0.4,0.2-1,0.2-1.6c0-0.6,0-1.3,0-2
				c0-1.5,0-3.1,0-5c0-1.9,0-4,0-6.3c0-0.6,0-1.2,0-1.8c0-0.6-0.1-1.2-0.4-1.7c-0.3-0.5-0.8-0.9-1.4-1.1c-0.6-0.2-1.2-0.1-1.9-0.1
				c-5.4,0-11.5,0-18.2,0c-27-0.1-64.3-0.2-105.5-0.4c-1.1,0-2.2,0.9-2.3,2c0,1.2,0,2.5,0,3.8c0,2.5,0,5.1,0,7.6c0,1.3,0,2.5,0,3.7
				c0,0.6-0.1,1.3,0.1,1.8c0.1,0.5,0.5,1,0.9,1.3c0.5,0.3,1,0.4,1.6,0.4l1.8,0c1.2,0,2.4,0,3.7,0c9.7,0.1,19.1,0.1,28,0.2
				c17.9,0.1,33.9,0.2,47.4,0.3c13.5,0.1,24.4,0.2,32,0.3c3.8,0.1,6.7,0.1,8.7,0.1c1,0,1.7,0,2.3,0
				C367.9,241.9,368.2,241.9,368.2,241.9s-0.3,0-0.8,0c-0.5,0-1.3,0-2.3,0c-2,0-4.9,0-8.7,0c-7.6,0-18.5,0-32,0
				c-13.5,0-29.6-0.1-47.4-0.2c-8.9,0-18.3-0.1-28-0.1c-1.2,0-2.4,0-3.7,0l-1.8,0c-0.6,0-1.4-0.1-1.9-0.5c-0.6-0.4-1-1-1.2-1.7
				c-0.2-0.7-0.1-1.3-0.1-1.9c0-1.2,0-2.5,0-3.7c0-2.5,0-5,0-7.6c0-1.3,0-2.5,0-3.9c0.1-1.5,1.5-2.7,3-2.6
				c41.2,0.2,78.5,0.4,105.5,0.6c6.7,0.1,12.9,0.1,18.2,0.1c0.7,0,1.3-0.1,2,0.1c0.7,0.2,1.2,0.7,1.6,1.2c0.4,0.6,0.4,1.3,0.4,1.8
				c0,0.6,0,1.2,0,1.8c0,2.3,0,4.4-0.1,6.3c0,1.9,0,3.6-0.1,5c0,0.7,0,1.4,0,2c0,0.6,0,1.2-0.3,1.7c-0.4,0.9-1.2,1.3-1.7,1.4
				C368.4,242,368.2,241.9,368.2,241.9z"/>
		</g>
	</g>
	<g>
		
			<rect x="253.7" y="248.8" transform="matrix(4.596210e-03 -1 1 4.596210e-03 -9.4877 520.5421)" class="st2" width="6" height="32.6"/>
		
			<rect x="253.7" y="248.8" transform="matrix(4.596210e-03 -1 1 4.596210e-03 -9.4877 520.5421)" class="st6" width="6" height="32.6"/>
	</g>
	<g>
		<g>
			<path class="st7" d="M367.9,298.8c0,0,0.3,0,0.7-0.1c0.5-0.2,1.2-0.5,1.6-1.4c0.2-0.4,0.2-1,0.2-1.6c0-0.6,0-1.3,0-2
				c0-1.5,0-3.1,0-5c0-1.9,0-4,0-6.3c0-0.6,0-1.2,0-1.8c0-0.6-0.1-1.2-0.4-1.7c-0.3-0.5-0.8-0.9-1.4-1.1c-0.6-0.2-1.2-0.1-1.9-0.1
				c-5.4,0-11.5,0-18.2,0c-27-0.1-64.3-0.2-105.5-0.4c-1.1,0-2.2,0.9-2.3,2c0,1.2,0,2.5,0,3.8c0,2.5,0,5.1,0,7.6c0,1.3,0,2.5,0,3.7
				c0,0.6-0.1,1.3,0.1,1.8c0.1,0.5,0.5,1,0.9,1.3c0.5,0.3,1,0.4,1.6,0.4l1.8,0c1.2,0,2.4,0,3.7,0c9.7,0.1,19.1,0.1,28,0.2
				c17.9,0.1,33.9,0.2,47.4,0.3c13.5,0.1,24.4,0.2,32,0.3c3.8,0.1,6.7,0.1,8.7,0.1c1,0,1.7,0,2.3,0
				C367.6,298.8,367.9,298.8,367.9,298.8s-0.3,0-0.8,0c-0.5,0-1.3,0-2.3,0c-2,0-4.9,0-8.7,0c-7.6,0-18.5,0-32,0
				c-13.5,0-29.6-0.1-47.4-0.2c-8.9,0-18.3-0.1-28-0.1c-1.2,0-2.4,0-3.7,0l-1.8,0c-0.6,0-1.4-0.1-1.9-0.5c-0.6-0.4-1-1-1.2-1.7
				c-0.2-0.7-0.1-1.3-0.1-2c0-1.2,0-2.5,0-3.7c0-2.5,0-5,0-7.6c0-1.3,0-2.5,0-3.9c0.1-1.5,1.5-2.7,3-2.6
				c41.2,0.2,78.5,0.4,105.5,0.6c6.7,0.1,12.9,0.1,18.2,0.1c0.7,0,1.3-0.1,2,0.1c0.7,0.2,1.2,0.7,1.6,1.2c0.4,0.6,0.4,1.3,0.4,1.8
				c0,0.6,0,1.2,0,1.8c0,2.3,0,4.4-0.1,6.3c0,1.9,0,3.6-0.1,5c0,0.7,0,1.4,0,2c0,0.6,0,1.2-0.3,1.7c-0.4,0.9-1.2,1.3-1.7,1.4
				C368.2,298.8,367.9,298.8,367.9,298.8z"/>
		</g>
	</g>
	<g>
		
			<rect x="276.4" y="201.2" transform="matrix(4.619041e-03 -1 1 4.619041e-03 46.899 509.1505)" class="st2" width="5.6" height="59.6"/>
		
			<rect x="276.4" y="201.2" transform="matrix(4.619041e-03 -1 1 4.619041e-03 46.899 509.1505)" class="st8" width="5.6" height="59.6"/>
	</g>
	<g>
		<g>
			<g>
				<path class="st2" d="M254.8,288.4c0,1.5-1.2,2.8-2.6,2.8c-1.4,0-2.6-1.3-2.6-2.8c0-1.5,1.2-2.8,2.6-2.8
					C253.7,285.7,254.8,286.9,254.8,288.4z"/>
			</g>
			<g>
				<path class="st2" d="M262.9,288.5c0,1.5-1.2,2.8-2.6,2.8c-1.4,0-2.6-1.3-2.6-2.8c0-1.5,1.2-2.8,2.6-2.8
					C261.8,285.7,262.9,287,262.9,288.5z"/>
			</g>
			<g>
				<path class="st2" d="M271,288.5c0,1.5-1.2,2.8-2.6,2.8c-1.4,0-2.6-1.3-2.6-2.8c0-1.5,1.2-2.8,2.6-2.8
					C269.8,285.7,271,287,271,288.5z"/>
			</g>
			<g>
				<path class="st2" d="M279,288.6c0,1.5-1.2,2.8-2.6,2.8c-1.4,0-2.6-1.3-2.6-2.8c0-1.5,1.2-2.8,2.6-2.8
					C277.9,285.8,279.1,287,279,288.6z"/>
			</g>
			<g>
				<path class="st2" d="M287.1,288.6c0,1.5-1.2,2.8-2.6,2.8c-1.4,0-2.6-1.3-2.6-2.8c0-1.5,1.2-2.8,2.6-2.8
					C286,285.8,287.1,287.1,287.1,288.6z"/>
			</g>
			<g>
				<path class="st2" d="M295.2,288.6c0,1.5-1.2,2.8-2.6,2.8c-1.4,0-2.6-1.3-2.6-2.8c0-1.5,1.2-2.8,2.6-2.8
					C294,285.9,295.2,287.1,295.2,288.6z"/>
			</g>
			<g>
				<path class="st2" d="M303.3,288.7c0,1.5-1.2,2.8-2.6,2.8s-2.6-1.3-2.6-2.8c0-1.5,1.2-2.8,2.6-2.8
					C302.1,285.9,303.3,287.1,303.3,288.7z"/>
			</g>
			<g>
				<path class="st2" d="M311.3,288.7c0,1.5-1.2,2.8-2.6,2.8c-1.4,0-2.6-1.3-2.6-2.8c0-1.5,1.2-2.8,2.6-2.8
					C310.2,285.9,311.3,287.2,311.3,288.7z"/>
			</g>
			<g>
				<path class="st2" d="M319.4,288.8c0,1.5-1.2,2.8-2.6,2.8c-1.4,0-2.6-1.3-2.6-2.8c0-1.5,1.2-2.8,2.6-2.8
					C318.3,286,319.4,287.2,319.4,288.8z"/>
			</g>
		</g>
		<g class="st9">
			<g>
				<path class="st1" d="M254.8,288.4c0,1.5-1.2,2.8-2.6,2.8c-1.4,0-2.6-1.3-2.6-2.8c0-1.5,1.2-2.8,2.6-2.8
					C253.7,285.7,254.8,286.9,254.8,288.4z"/>
			</g>
			<g>
				<path class="st1" d="M262.9,288.5c0,1.5-1.2,2.8-2.6,2.8c-1.4,0-2.6-1.3-2.6-2.8c0-1.5,1.2-2.8,2.6-2.8
					C261.8,285.7,262.9,287,262.9,288.5z"/>
			</g>
			<g>
				<path class="st1" d="M271,288.5c0,1.5-1.2,2.8-2.6,2.8c-1.4,0-2.6-1.3-2.6-2.8c0-1.5,1.2-2.8,2.6-2.8
					C269.8,285.7,271,287,271,288.5z"/>
			</g>
			<g>
				<path class="st1" d="M279,288.6c0,1.5-1.2,2.8-2.6,2.8c-1.4,0-2.6-1.3-2.6-2.8c0-1.5,1.2-2.8,2.6-2.8
					C277.9,285.8,279.1,287,279,288.6z"/>
			</g>
			<g>
				<path class="st1" d="M287.1,288.6c0,1.5-1.2,2.8-2.6,2.8c-1.4,0-2.6-1.3-2.6-2.8c0-1.5,1.2-2.8,2.6-2.8
					C286,285.8,287.1,287.1,287.1,288.6z"/>
			</g>
			<g>
				<path class="st1" d="M295.2,288.6c0,1.5-1.2,2.8-2.6,2.8c-1.4,0-2.6-1.3-2.6-2.8c0-1.5,1.2-2.8,2.6-2.8
					C294,285.9,295.2,287.1,295.2,288.6z"/>
			</g>
			<g>
				<path class="st1" d="M303.3,288.7c0,1.5-1.2,2.8-2.6,2.8s-2.6-1.3-2.6-2.8c0-1.5,1.2-2.8,2.6-2.8
					C302.1,285.9,303.3,287.1,303.3,288.7z"/>
			</g>
			<g>
				<path class="st1" d="M311.3,288.7c0,1.5-1.2,2.8-2.6,2.8c-1.4,0-2.6-1.3-2.6-2.8c0-1.5,1.2-2.8,2.6-2.8
					C310.2,285.9,311.3,287.2,311.3,288.7z"/>
			</g>
			<g>
				<path class="st1" d="M319.4,288.8c0,1.5-1.2,2.8-2.6,2.8c-1.4,0-2.6-1.3-2.6-2.8c0-1.5,1.2-2.8,2.6-2.8
					C318.3,286,319.4,287.2,319.4,288.8z"/>
			</g>
		</g>
	</g>
	<g>
		<g>
			<path class="st2" d="M307.9,105.9c1.7-0.7,2.9-2.5,2.9-4.5c0-2.7-2-4.9-4.6-4.9s-4.6,2.2-4.6,4.9c0,2.1,1.2,3.9,2.9,4.6
				c-7.1,1.1-6.8,8.8-6.8,8.8l16.8,0.1C314.6,114.8,315,107,307.9,105.9z"/>
			<path class="st6" d="M307.9,105.9c1.7-0.7,2.9-2.5,2.9-4.5c0-2.7-2-4.9-4.6-4.9s-4.6,2.2-4.6,4.9c0,2.1,1.2,3.9,2.9,4.6
				c-7.1,1.1-6.8,8.8-6.8,8.8l16.8,0.1C314.6,114.8,315,107,307.9,105.9z"/>
		</g>
		<g>
			
				<rect x="301.7" y="93.4" transform="matrix(4.615052e-03 -1 1 4.615052e-03 180.6159 427.971)" class="st2" width="7.1" height="59.8"/>
			
				<rect x="301.7" y="93.4" transform="matrix(4.615052e-03 -1 1 4.615052e-03 180.6159 427.971)" class="st8" width="7.1" height="59.8"/>
		</g>
	</g>
</g>
</svg>
