<?xml version="1.0" encoding="utf-8"?>
<!-- Generator: Adobe Illustrator 24.0.2, SVG Export Plug-In . SVG Version: 6.00 Build 0)  -->
<svg version="1.1" id="Layer_1" xmlns="http://www.w3.org/2000/svg" xmlns:xlink="http://www.w3.org/1999/xlink" x="0px" y="0px"
	 viewBox="0 0 518 450" style="enable-background:new 0 0 518 450;" xml:space="preserve">
<style type="text/css">
	.st0{fill:#FFFFFF;}
	.st1{fill:#E6D5D5;}
	.st2{fill:url(#SVGID_1_);}
	.st3{fill:#EFF0F5;}
	.st4{fill:#BFC4D5;}
	.st5{fill:#313031;}
	.st6{fill:#415743;}
	.st7{fill:#2A2A2C;}
	.st8{fill:#44404C;}
	.st9{fill:#3A3F47;}
	.st10{fill:#516F83;}
	.st11{fill:#C4C8D8;}
	.st12{fill:#A0A6C0;}
	.st13{fill:#191F28;}
	.st14{fill:#2B252B;}
	.st15{fill:#47434F;}
	.st16{fill:#4B4754;}
	.st17{fill:#403B47;}
	.st18{fill:#3F3C47;}
	.st19{fill:#423F4A;}
	.st20{fill:#3B3742;}
	.st21{fill:#5D5869;}
</style>
<ellipse transform="matrix(1 -5.422019e-03 5.422019e-03 1 -1.5496 1.3721)" class="st0" cx="252.28" cy="286.49" rx="218.28" ry="126.02"/>
<g>
	<g>
		<path class="st1" d="M420.75,204.41l-91.58-52.87c-7.2-4.16-19.91-3.63-28.22,1.17L114.51,260.34c-8.32,4.8-9.23,12.14-2.03,16.3
			l90.48,52.24l-0.97,3.47h11.92v-0.12c6.23,0.45,13.16-0.87,18.38-3.89L418.73,220.7C427.04,215.9,427.96,208.57,420.75,204.41z"/>
		<linearGradient id="SVGID_1_" gradientUnits="userSpaceOnUse" x1="91.7144" y1="240.5536" x2="409.7069" y2="240.5536">
			<stop  offset="0" style="stop-color:#C4C8D8"/>
			<stop  offset="0.0225" style="stop-color:#C4C8D8"/>
			<stop  offset="0.2827" style="stop-color:#C4C8D8"/>
			<stop  offset="0.3039" style="stop-color:#C0C5D6"/>
			<stop  offset="0.3229" style="stop-color:#B6BACE"/>
			<stop  offset="0.3409" style="stop-color:#A3A9C2"/>
			<stop  offset="0.3436" style="stop-color:#A0A6C0"/>
			<stop  offset="0.9862" style="stop-color:#A0A6C0"/>
			<stop  offset="0.9862" style="stop-color:#A0A6C0"/>
			<stop  offset="0.9908" style="stop-color:#B4B9CD"/>
			<stop  offset="0.9954" style="stop-color:#C0C4D5"/>
			<stop  offset="1" style="stop-color:#C4C8D8"/>
		</linearGradient>
		<path class="st2" d="M409.71,201.45l-5.77,2.46l-90.67-52.35c-7.2-4.16-19.91-3.63-28.22,1.17L98.6,260.37
			c-0.37,0.21-0.7,0.43-1.04,0.65l-5.85-1.71v10.42l0.01,0.01c0.05,2.6,1.64,5.08,4.85,6.94l91.58,52.87
			c7.2,4.16,19.91,3.63,28.22-1.17l186.44-107.64c4.48-2.59,6.79-5.91,6.86-9.07l0.02,0L409.71,201.45z"/>
		<path class="st3" d="M188.16,319.47l-91.58-52.87c-7.2-4.16-6.29-11.49,2.03-16.3l186.44-107.64c8.32-4.8,21.02-5.33,28.22-1.17
			l91.58,52.87c7.2,4.16,6.29,11.49-2.03,16.3L216.38,318.3C208.06,323.1,195.36,323.63,188.16,319.47z"/>
		<path class="st4" d="M402.82,209.63L216.38,317.27c-8.32,4.8-21.02,5.33-28.22,1.17l-91.58-52.87c-3.04-1.76-4.62-4.09-4.82-6.55
			c-0.21,2.83,1.36,5.57,4.82,7.57l91.58,52.87c7.2,4.16,19.91,3.63,28.22-1.17l186.44-107.64c4.8-2.77,7.12-6.39,6.85-9.75
			C409.44,203.96,407.14,207.14,402.82,209.63z"/>
		<path class="st5" d="M403.83,205.25c-0.95,1.47-2.49,2.87-4.59,4.09l-45.4,26.21l-57.77,33.35l-81.99,47.33
			c-6.96,4.03-17.57,4.47-23.6,0.98l-83.69-48.32l-6.31-3.64c-6.03-3.49-5.26-9.61,1.7-13.64l27.83-16.07l52.49-30.3l71.93-41.54
			l32.89-18.98c6.96-4.03,17.59-4.45,23.62-0.98l34.57,19.97l55.41,31.99C405.14,198.14,406.04,201.85,403.83,205.25z"/>
		<path class="st6" d="M400.93,201.46l-55.41-31.99l-34.57-19.97c-6.03-3.47-16.66-3.05-23.62,0.98l-32.89,18.98l-71.93,41.54
			l-52.49,30.3l-27.83,16.07c-2.43,1.41-4.09,3.07-4.99,4.79c0.66,1.15,1.75,2.21,3.28,3.09l6.31,3.64l83.69,48.32
			c6.03,3.49,16.64,3.05,23.6-0.98l81.99-47.33l57.77-33.35l45.4-26.21c2.1-1.23,3.64-2.62,4.59-4.09c0.15-0.22,0.28-0.45,0.4-0.68
			C403.56,203.41,402.47,202.35,400.93,201.46z"/>
		<path class="st7" d="M357.72,181.72l-22.56-13.03c-0.41-0.24-0.36-0.66,0.12-0.93l0,0c0.48-0.27,1.2-0.3,1.61-0.07l22.56,13.03
			c0.41,0.24,0.36,0.66-0.12,0.93l0,0C358.86,181.93,358.13,181.96,357.72,181.72z"/>
		<path class="st8" d="M334.99,168.53c0.07-0.09,0.16-0.18,0.29-0.26c0.48-0.27,1.2-0.3,1.61-0.07l22.56,13.03
			c0.08,0.05,0.13,0.1,0.17,0.16c0.17-0.24,0.12-0.5-0.17-0.67l-22.56-13.03c-0.41-0.24-1.14-0.21-1.61,0.07
			C334.9,167.98,334.8,168.29,334.99,168.53z"/>
		<path class="st9" d="M326.73,162.83c-1.35,0.78-3.55,0.78-4.91-0.01c-1.36-0.79-1.37-2.05-0.02-2.83
			c1.35-0.78,3.55-0.78,4.91,0.01C328.08,160.78,328.08,162.05,326.73,162.83z"/>
		<path class="st10" d="M325.82,162.3c-0.85,0.49-2.24,0.49-3.1-0.01c-0.86-0.5-0.86-1.3-0.01-1.79c0.85-0.49,2.24-0.49,3.1,0.01
			C326.67,161.01,326.68,161.81,325.82,162.3z"/>
		<path class="st7" d="M332.74,166.3c-0.95,0.55-2.51,0.55-3.47-0.01c-0.96-0.55-0.97-1.45-0.01-2c0.95-0.55,2.51-0.55,3.47,0.01
			C333.69,164.85,333.7,165.75,332.74,166.3z"/>
		<g>
			<path class="st11" d="M388.56,226.95l-13.38,7.73c-1.09,0.63-1.99-0.04-1.99-1.5l0,0c0-1.46,0.89-3.16,1.99-3.79l13.38-7.73
				c1.09-0.63,1.99,0.04,1.99,1.5l0,0C390.55,224.61,389.66,226.32,388.56,226.95z"/>
			<path class="st12" d="M389.57,227.58l-13.38,7.73c-1.09,0.63-1.99-0.04-1.99-1.5l0,0c0-1.46,0.89-3.16,1.99-3.79l13.38-7.73
				c1.09-0.63,1.99,0.04,1.99,1.5l0,0C391.56,225.24,390.67,226.95,389.57,227.58z"/>
		</g>
		<g>
			<path class="st11" d="M303.4,276.08l-13.38,7.73c-1.09,0.63-1.99-0.04-1.99-1.5l0,0c0-1.46,0.89-3.16,1.99-3.79l13.38-7.73
				c1.09-0.63,1.99,0.05,1.99,1.5l0,0C305.38,273.75,304.49,275.45,303.4,276.08z"/>
			<path class="st12" d="M304.41,276.71l-13.38,7.73c-1.09,0.63-1.99-0.05-1.99-1.5l0,0c0-1.46,0.89-3.16,1.99-3.79l13.38-7.73
				c1.09-0.63,1.99,0.04,1.99,1.5l0,0C306.39,274.38,305.5,276.08,304.41,276.71z"/>
		</g>
		<path class="st12" d="M149.17,301.99c0,1.24-0.77,1.82-1.7,1.28l-11.5-6.62c-0.93-0.54-1.7-2.02-1.7-3.26
			c0-1.24,0.77-1.83,1.7-1.29l1.13,0.66l10.37,5.98c0.72,0.41,1.34,1.39,1.59,2.37C149.14,301.41,149.17,301.72,149.17,301.99z"/>
		<path class="st13" d="M149.05,301.11l-10.37-5.99c-0.72-0.41-1.34-1.38-1.59-2.36l10.37,5.98
			C148.19,299.14,148.81,300.13,149.05,301.11z"/>
	</g>
	<g>
		<polygon class="st14" points="256.95,262.11 258.07,239.75 239.62,233.18 223.03,248.9 208.23,295.68 208.23,298.39 
			207.78,298.41 		"/>
		<polygon class="st14" points="180.03,269.85 220.94,249.23 236.35,232.94 238.8,211.74 210.38,211.22 		"/>
		<polygon class="st14" points="342.02,204.4 342.02,201.7 298.4,179.13 265.35,209.11 305.29,222.17 		"/>
		<polygon class="st14" points="238.59,209.39 243.51,182.62 208.52,209.41 		"/>
		<polygon class="st14" points="263.73,210.53 260.69,236.24 260.69,238.94 305.29,222.17 		"/>
		<polygon class="st14" points="263.52,210.84 242.47,229.03 242.47,231.73 258.07,237.71 		"/>
		<polygon class="st14" points="220.39,252.14 178.53,270.59 206.72,298.3 206.66,298.05 206.7,297.92 		"/>
		<polygon class="st14" points="325.25,151.39 299.2,177.86 343.12,203.31 367.71,175.77 367.71,173.06 345.45,162.91 
			324.89,151.03 		"/>
		<polygon class="st14" points="265.81,167.63 246.37,179.64 246.37,182.35 263.52,210.84 		"/>
		<polygon class="st14" points="238.36,228.92 241.49,230.4 263.52,210.84 238.8,211.74 		"/>
		<polygon class="st14" points="245.6,184.82 240.49,211.06 262.15,209.39 245.87,184.62 		"/>
		<polygon class="st14" points="208.52,210.53 152.2,225.46 152.2,265.18 180.65,269.13 		"/>
		<path class="st14" d="M268.72,280.69l-60.71,16.09v2.7l3.66,16.73c0.58-0.27,1.15-0.55,1.68-0.86l28.35-16.37l27.01-15.58V280.69z
			"/>
		<polygon class="st14" points="260.21,263.95 270.49,283.87 285.29,275.33 294.09,270.24 348.33,238.94 260.21,261.25 		"/>
		<path class="st14" d="M407,201.05c-0.33-1.39-1.44-2.69-3.25-3.74l-34.85-20.11l0.38,0.34l-24.51,27.44l33.27,17.38l24.04-13.88
			c1.51-0.88,2.69-1.83,3.51-2.86c0.21-0.28,0.42-0.51,0.58-0.79C407,203.58,407.3,202.28,407,201.05z"/>
		<path class="st14" d="M206.08,299.96l-24.25-30.83l-48.05,11.35v2.71l38.66,22.32l18.76,10.82c2.39,1.39,5.8,2.18,9.52,2.18
			c3.51,0,7.01-0.68,10-1.89L206.08,299.96z"/>
		<polygon class="st14" points="305.29,222.17 259.35,240.55 259.35,262.77 345.39,238.97 351.26,236.7 373.19,224.03 
			373.19,221.33 		"/>
		<polygon class="st14" points="244.76,182.07 262.95,168.14 269.78,156.5 269.78,153.79 265.14,159.17 239.45,171.29 239.45,174 		
			"/>
		<path class="st14" d="M265.81,167.63l25.88,8.68l3.79,2.19l26.14-26.56l-11.37-6.57c-0.77-0.44-1.6-0.81-2.53-1.09
			c-2.04-0.7-4.43-1.05-7.01-1.05c-4.6,0-9.22,1.11-12.65,3.13l-14.78,8.53l-7.46,10.03V167.63z"/>
		<polygon class="st14" points="344.3,205.82 309.2,220.54 375.94,222.36 375.94,219.65 		"/>
		<path class="st14" d="M151.18,265.45v-40.09l-18.28,10.56l-30,17.3c-3.18,1.88-5.04,4.23-5.04,6.52c0,1.76,1.16,3.39,3.34,4.67
			l8.45,4.85l23.07,13.32L151.18,265.45z"/>
		<polygon class="st14" points="208.52,209.41 243.51,182.62 243.51,179.92 238.57,174.18 188.77,202.92 151.22,221.9 
			151.22,224.61 		"/>
		<polygon class="st14" points="291.23,177.21 267.94,169.42 263.52,210.84 294.74,179.25 294.74,176.54 		"/>
	</g>
	<g>
		<polygon class="st8" points="256.95,259.4 258.07,237.05 239.62,230.48 223.03,246.2 208.23,295.68 207.78,295.7 		"/>
		<polygon class="st15" points="180.03,267.14 220.94,246.53 236.35,230.24 238.8,209.03 210.38,208.51 		"/>
		<polygon class="st16" points="342.02,201.7 298.4,176.42 265.35,206.41 305.29,219.47 		"/>
		<polygon class="st8" points="238.59,206.69 243.51,179.92 208.52,206.71 		"/>
		<polygon class="st8" points="263.73,207.82 260.69,236.24 305.29,219.47 		"/>
		<polygon class="st17" points="263.52,208.14 242.47,229.03 258.07,235 		"/>
		<polygon class="st17" points="220.39,249.44 178.53,267.88 206.72,295.6 206.66,295.34 206.7,295.22 		"/>
		<polygon class="st8" points="325.25,148.68 299.2,175.15 343.12,200.6 367.71,173.06 359.36,168.24 345.45,160.21 324.89,148.33 
					"/>
		<polygon class="st8" points="265.81,164.93 246.37,179.64 263.52,208.14 		"/>
		<polygon class="st18" points="238.36,226.21 241.49,227.69 263.52,208.14 238.8,209.03 		"/>
		<polygon class="st16" points="245.6,182.12 240.49,208.36 262.15,206.69 245.87,181.91 		"/>
		<polygon class="st15" points="208.52,207.82 152.2,222.76 152.2,262.47 180.65,266.43 		"/>
		<path class="st18" d="M258.4,260.7l-50.38,36.08l3.66,16.73c0.58-0.27,1.15-0.55,1.68-0.86l28.35-16.37l27.01-15.58L258.4,260.7z"
			/>
		<polygon class="st15" points="260.21,261.25 270.49,281.16 285.29,272.62 294.09,267.54 348.33,236.24 		"/>
		<path class="st17" d="M407,198.34c-0.33-1.39-1.44-2.69-3.25-3.74l-34.85-20.11l0.38,0.34l-24.51,27.44l33.27,17.38l24.04-13.88
			c1.51-0.88,2.69-1.83,3.51-2.86c0.21-0.28,0.42-0.51,0.58-0.79C407,200.87,407.3,199.57,407,198.34z"/>
		<path class="st17" d="M206.08,297.26l-24.25-30.83l-30-2.91l-18.05,16.96l38.66,22.32l18.76,10.82c2.39,1.39,5.8,2.18,9.52,2.18
			c3.51,0,7.01-0.68,10-1.89L206.08,297.26z"/>
		<polygon class="st15" points="305.29,219.47 259.35,237.85 259.35,260.06 345.39,236.27 351.26,234 373.19,221.33 		"/>
		<polygon class="st17" points="244.76,179.37 262.95,165.44 269.78,153.79 265.14,156.47 255.64,161.95 239.45,171.29 		"/>
		<path class="st19" d="M265.81,164.93l25.88,8.68l3.79,2.19l26.14-26.56l-11.37-6.57c-0.77-0.44-1.6-0.81-2.53-1.09
			c-2.04-0.7-4.43-1.05-7.01-1.05c-4.6,0-9.22,1.11-12.65,3.13l-14.78,8.53L265.81,164.93z"/>
		<polygon class="st8" points="344.3,203.12 309.2,217.84 375.94,219.65 		"/>
		<path class="st20" d="M151.18,262.75v-40.09l-18.28,10.56l-30,17.3c-3.18,1.88-5.04,4.23-5.04,6.52c0,1.76,1.16,3.39,3.34,4.67
			l8.45,4.85l23.07,13.32L151.18,262.75z"/>
		<polygon class="st8" points="208.52,206.71 243.51,179.92 238.15,171.76 238.57,171.48 188.77,200.22 183.22,203.42 151.22,221.9 
					"/>
		<polygon class="st17" points="291.23,174.51 267.94,166.71 263.52,208.14 294.74,176.54 		"/>
	</g>
	<polygon class="st21" points="266.2,205.64 265.35,206.41 305.29,219.47 342.02,201.7 305.29,218.35 	"/>
	<polygon class="st21" points="263.52,208.14 265.81,164.93 264.82,165.67 	"/>
	<polygon class="st21" points="261.68,235 305.29,219.47 260.69,236.24 263.73,207.82 	"/>
	<polygon class="st21" points="238.8,209.03 235.56,229.74 220.39,245.84 180.65,266.43 181.83,266.43 220.94,246.53 236.35,230.24 
			"/>
	<polygon class="st21" points="259.35,260.06 260.69,238.38 305.29,219.47 259.35,237.85 	"/>
	<polygon class="st21" points="239.62,230.48 223.03,246.2 207.78,295.7 223.65,246.35 240,231.26 245.67,232.63 	"/>
	<polygon class="st21" points="238.8,209.03 239.05,225.68 241.49,227.69 238.36,226.21 	"/>
	<g>
		
			<ellipse transform="matrix(1 -5.426036e-03 5.426036e-03 1 -1.5115 0.8668)" class="st20" cx="159" cy="279" rx="11.93" ry="6.89"/>
		<path class="st14" d="M150.59,276.75c4.67-2.7,12.23-2.71,16.87-0.03c1.74,1,2.82,2.24,3.25,3.54c0.72-2.16-0.37-4.48-3.25-6.14
			c-4.64-2.68-12.2-2.67-16.87,0.03c-2.93,1.69-4.03,4.03-3.3,6.2C147.72,279.03,148.82,277.77,150.59,276.75z"/>
	</g>
</g>
</svg>
