<?xml version="1.0" encoding="utf-8"?>
<!-- Generator: Adobe Illustrator 24.1.0, SVG Export Plug-In . SVG Version: 6.00 Build 0)  -->
<svg version="1.1" id="Capa_1" xmlns="http://www.w3.org/2000/svg" xmlns:xlink="http://www.w3.org/1999/xlink" x="0px" y="0px"
	 viewBox="0 0 613.2 490.2" style="enable-background:new 0 0 613.2 490.2;" xml:space="preserve">
<style type="text/css">
	.st0{fill:#375A64;}
	.st1{fill:#FFFFFF;}
	.st2{fill:#B31E23;}
	.st3{fill:#EE1927;}
</style>
<g>
	<g>
		<path class="st0" d="M357.7,426.7l-127.7-0.6c-15.4-0.1-27.8-12.6-27.7-27.9l1.4-320.3c0.1-15.4,12.6-27.8,28-27.7l127.7,0.6
			c15.4,0.1,27.8,12.6,27.7,27.9L385.6,399C385.6,414.4,373,426.8,357.7,426.7z"/>
	</g>
	<g>
		<path class="st1" d="M359.1,61.8l-24.8-0.1c-3.3,0-6,2.8-6,6.3l0,4.5c0,3.5-2.7,6.3-6,6.3l-48.3-0.2c-3.3,0-6-2.8-6-6.3l0-4.5
			c0-3.5-2.7-6.3-6-6.3l-8.7,0l-21.7-0.1c-10.8-0.1-19.5,8.6-19.6,19.4l-1.3,312.6c-0.1,10.8,8.6,19.5,19.4,19.6l127.5,0.6
			c10.8,0.1,19.5-8.6,19.6-19.4l1.3-312.6C378.5,70.7,369.9,61.9,359.1,61.8z"/>
	</g>
</g>
<g>
	<g>
		<g>
			<path class="st2" d="M360.3,262c0-14.6-11.8-26.4-26.4-26.4c-14.6,0-26.4,11.8-26.4,26.4c0,4,0.9,7.9,2.5,11.3l0,0l0.1,0.1l0,0
				l23.8,50.5l23.8-50.7l0,0C359.4,269.9,360.3,266.1,360.3,262z"/>
			<path class="st1" d="M333.9,324.5c-0.2,0-0.3-0.1-0.4-0.3l-23.8-50.5c0,0,0,0,0,0l-0.1-0.1c-1.7-3.6-2.6-7.5-2.6-11.5
				c0-14.8,12-26.8,26.8-26.8c14.8,0,26.8,12,26.8,26.8c0,4-0.8,7.8-2.5,11.3c0,0.1,0,0.1,0,0.2l-23.8,50.7
				C334.3,324.4,334.1,324.5,333.9,324.5z M310.6,273.3L310.6,273.3l23.4,49.7l23.4-49.6c0-0.1,0-0.1,0-0.2
				c1.6-3.5,2.5-7.2,2.5-11.1c0-14.3-11.6-25.9-25.9-25.9c-14.3,0-25.9,11.6-25.9,25.9c0,3.9,0.8,7.6,2.5,11.1L310.6,273.3z"/>
		</g>
		<path class="st3" d="M358.2,262.4c0-14.1-10.9-25.6-24.3-25.6c-13.4,0-24.3,11.5-24.3,25.6c0,3.9,0.8,7.6,2.3,11l0,0l0.1,0.1l0,0
			l21.9,38.5l22-38.6h0C357.4,270.1,358.2,266.4,358.2,262.4z"/>
		<path class="st1" d="M351.4,259.4c0,9.6-7.8,17.5-17.5,17.5c-9.6,0-17.5-7.8-17.5-17.5c0-9.6,7.8-17.5,17.5-17.5
			S351.4,249.8,351.4,259.4z"/>
	</g>
</g>
<image style="overflow:visible;enable-background:new    ;" width="207" height="155" xlink:href="992DE08D.png"  transform="matrix(0.6262 0 0 0.6262 228.499 127.5336)">
</image>
</svg>
